<svg xmlns="http://www.w3.org/2000/svg" width="40" height="40" viewBox="0 0 40 40">
    <g fill="none" fill-rule="evenodd">
        <circle cx="20" cy="20" r="20" fill="#FFF"/>
        <path fill="#84BD01" d="M13.942 22.263c.593-.456 1.429-.415 1.975.095l3.474 3.06c.528.443 1.192.69 1.88.701.54.007 1.069-.137 1.53-.414l6.279-3.633v6.182c0 .701-.702 1.211-1.403 1.211H10.132l-.049-.001c-.633-.036-1.117-.577-1.081-1.21v-2.358zM14.02 9l.145.005 17.369 2.008c.342.026.657.2.86.478.216.257.32.59.287.924l-1.498 12.94c.003.335-.15.652-.414.86-.128.127-.415.19-.415.255V15.22c-.05-1.452-1.224-2.613-2.677-2.645H12.444l.287-2.486c.062-.322.23-.614.478-.829.28-.193.617-.283.956-.255zm13.657 4.85c.703.028 1.278.55 1.387 1.231l.016.139v5.354l-6.948 4.047c-.55.326-1.236.297-1.754-.063l-.126-.096-3.506-3.06c-.943-.84-2.323-.942-3.374-.271l-.163.112-4.207 3.06V15.22c0-.658.42-1.287 1.05-1.363l.129-.008h17.496zm-6.66 2.007c-1.479 0-2.677 1.198-2.677 2.677s1.198 2.677 2.677 2.677c1.478 0 2.677-1.198 2.677-2.677s-1.199-2.677-2.677-2.677zm0 1.275c.774 0 1.402.628 1.402 1.402 0 .774-.628 1.402-1.402 1.402-.775 0-1.403-.628-1.403-1.402 0-.774.628-1.402 1.403-1.402z"/>
    </g>
</svg>
