<svg xmlns="http://www.w3.org/2000/svg" xmlns:xlink="http://www.w3.org/1999/xlink" width="21" height="16" viewBox="0 0 21 16">
    <defs>
        <path id="prefix__a" d="M0.24 0L21.24 0 21.24 16 0.24 16z"/>
    </defs>
    <g fill="none" fill-rule="evenodd">
        <mask id="prefix__b" fill="#fff">
            <use xlink:href="#prefix__a"/>
        </mask>
        <path fill="#2F3C54" d="M8.512 11.241c-.036.216.064.275.21.124 1.595-1.079 3.187-2.161 4.783-3.238.148-.1.158-.145.003-.25-1.596-1.076-3.189-2.16-4.783-3.238-.156-.157-.252-.09-.212.142C8.51 5.854 8.51 6.927 8.51 8l.001 3.241zm-5.68 4.408C1.295 15.442.25 13.991.221 12.318-.092 9.206-.086 6.05.32 2.948.773.218 3.393.202 5.35.118 6.414.06 7.478.051 8.542.018c3.278-.032 6.576-.081 9.833.379 2.36.364 2.444 3.32 2.545 5.398.047.94.103 1.881.07 2.824-.141 2.523.187 6.602-2.808 7.028-2.374.352-5.173.313-7.499.352-2.902-.013-5.122.053-7.852-.351z" mask="url(#prefix__b)"/>
    </g>
</svg>
