<svg xmlns="http://www.w3.org/2000/svg" width="183" height="34" viewBox="0 0 183 34">
    <g fill="none" fill-rule="evenodd">
        <path d="M0 0.327H184.6V51.027H0z" transform="translate(-1.3 -9.155)"/>
        <path fill="#BBC3CA" fill-rule="nonzero" d="M127.508 14.361c.456 0 .73-.09 1.094-.54l2.919-3.42c.09-.18.09-.36.09-.54h-1.914c-.456 0-.639.09-1.186.54l-1.641 1.35-1.642-1.35c-.456-.45-.73-.54-1.094-.54h-2.006c0 .09 0 .36.09.54l2.919 3.42c.365.45.638.54 1.094.54h1.277zm56.545 19.799V16.769c-.007-.34-.186-4.66-4.742-4.66h-17.623c-.35.008-4.72.188-4.72 4.68l.001 17.417c.016.488.278 4.634 4.741 4.634h17.6s4.743 0 4.743-4.68zM89.663 18.77v-3.87h-2.919c-1.276 0-1.824.63-1.824 1.8v2.07h4.742zm37.298 18.63c4.56 0 6.019-.72 6.019-2.43v-1.8h-6.02c-3.373 0-4.468-1.44-4.468-6.75 0-5.31 1.095-6.75 4.469-6.75h6.019v-1.8c0-1.8-1.46-2.43-6.02-2.43-6.292 0-9.575 3.33-9.575 10.98s3.283 10.98 9.576 10.98zm14.864.09c6.293 0 8.39-2.97 8.39-6.39 0-7.2-10.305-6.75-10.305-9.63 0-1.08.73-1.62 2.645-1.62h6.475v-1.89c0-1.89-2.554-2.43-6.931-2.43-5.198-.09-7.478 2.43-7.478 5.67 0 7.38 10.305 6.93 10.305 10.08 0 1.26-1.003 1.89-2.918 1.89h-7.387v1.89c0 1.89 3.283 2.43 7.204 2.43zm29.005-2.431c-5.472 0-9.85-4.32-9.85-9.72s4.47-9.72 9.85-9.72c5.289 0 9.21 4.05 9.21 9.45 0 1.26-.912 2.16-2.097 2.16h-7.113c-1.003 0-1.824-.81-1.824-1.8s.82-1.8 1.824-1.8h5.38c-.547-2.34-2.462-4.32-5.38-4.32-3.466 0-6.201 2.79-6.201 6.12 0 3.42 2.827 6.12 6.2 6.12 1.551 0 3.101-.63 4.287-1.71.73-.72 1.915-.63 2.553.09.73.72.639 1.89-.09 2.52-1.825 1.71-4.196 2.61-6.75 2.61zM14.7 37.22c1.277 0 1.915-.54 1.915-1.8v-2.34H7.041v-4.95h8.025v-3.87H7.04v-4.5h7.386c1.277 0 1.915-.54 1.915-1.8v-2.34H3.94c-1.277 0-1.824.63-1.824 1.89v17.82c0 1.26.547 1.89 1.824 1.89h10.761zm29.73.09c4.741 0 6.565-.54 6.565-2.16v-1.26H45.07v.09c-2.371 0-3.74-.9-3.74-3.96h10.214c.183-1.8.183-2.43.183-3.33 0-4.14-2.645-6.66-7.296-6.66-6.019 0-7.934 3.87-7.934 8.64 0 4.77 1.915 8.64 7.934 8.64zm55.81 0c4.742 0 6.566-.54 6.566-2.16v-1.26h-5.836v.09c-2.372 0-3.74-.9-3.74-3.96h10.214c.183-1.8.183-2.43.183-3.33 0-4.14-2.645-6.66-7.296-6.66-6.019 0-8.025 3.87-8.025 8.64 0 4.77 1.915 8.64 7.934 8.64zm-76.512-.09v-12.69c.82-.54 1.915-.9 2.918-.9 1.55 0 2.554.45 2.554 2.16v11.43h4.742v-11.7c0-3.06-1.55-5.4-5.29-5.4-1.914 0-3.465.63-4.833 2.07v-.36c0-.81-.456-1.53-2.006-1.53H19.17v16.92h4.56zm35.566 0v-11.7c.912-.45 1.915-.9 4.56-.9h.82v-3.69c0-.63-.547-.81-1.185-.81-1.368 0-2.918.54-4.104 2.34-.182-1.26-.73-2.16-2.006-2.16h-2.645v16.92h4.56zm14.317 5.22c6.02 0 7.66-3.51 7.66-6.66v-15.48h-2.735c-1.55 0-2.006.81-2.006 1.62v.27c-1.004-1.08-2.554-2.07-4.469-2.07-4.377 0-6.201 3.15-6.201 8.28 0 5.22 1.824 8.37 6.201 8.37 1.915 0 3.557-.99 4.469-2.07v.45c0 3.15-1.277 3.87-3.557 3.87h-5.745v1.26c0 1.62 1.55 2.16 6.383 2.16zm16.05-5.22v-15.12c0-1.17-.547-1.8-1.823-1.8H84.92v16.92h4.742zm-42.405-9.99h-5.836v-.09c.182-2.79 1.094-3.78 3.192-3.78 2.097 0 2.644 1.35 2.644 2.79v1.08zm55.902 0h-5.836v-.09c.182-2.79 1.094-3.78 3.192-3.78 2.097 0 2.644 1.35 2.644 2.79v1.08zm-29.364 5.94c-2.371 0-3.1-1.53-3.1-4.68 0-3.15.729-4.77 3.1-4.77 1.094 0 2.006.36 2.644.81v7.83c-.73.45-1.55.81-2.644.81z" transform="translate(-1.3 -9.155)"/>
    </g>
</svg>
