<svg xmlns="http://www.w3.org/2000/svg" width="209" height="37" viewBox="0 0 209 37">
    <g fill="none" fill-rule="evenodd">
        <path d="M0.411 0.861H209.711V51.561H0.411z" transform="translate(-.3 -8.155)"/>
        <path fill="#BBC3CA" fill-rule="nonzero" d="M25.104 8.667c-.078.107-.185.19-.31.237-1.242.71-2.476 1.432-3.487 2.452-.441.446-.847.917-.988 1.547-.045.2-.056.407-.033.611.3-.362.567-.701.85-1.03 1.303-1.5 2.993-2.262 4.967-2.453.767-.075 1.522.115 2.242.358 1.052.355 2.041.865 2.934 1.514.297.212.634.324.963.461.267.112.54.218.81.324l-.007.08-1.304.057c-1.265.053-2.522.15-3.708.636-.293.117-.57.268-.826.45-.25.174-.445.411-.566.686-.039.091-.13.204-.039.294s.184-.009.275-.035c.583-.172 1.17-.334 1.75-.52 1.738-.56 3.432-.361 5.107.296 1.323.52 2.652 1.023 4.061 1.293 1.634.319 3.293.496 4.959.53.506.01.576.086.434.571-.302 1.04-.86 1.946-1.573 2.763-.713.818-1.515 1.525-2.5 2.024-.025.013-.04.043-.061.065.064.099.172.097.26.125 1.99.614 3.838 1.6 5.443 2.9.217.178.418.23.682.133.148-.055.298-.132.472-.106-.566 1.004-3.3 3.393-7.258 4.524.089.063.192.103.3.117 2.305.586 3.532 2.051 3.705 4.36.068.891.032 1.782.046 2.673-.007.456.063.911.208 1.345.035.094.128.205.028.294-.08.07-.186 0-.28-.024-2.15-.499-4.268-1.117-6.396-1.697-.26-.072-.523-.134-.784-.2-.013.03-.034.054-.027.065.543.996.6 2.097.711 3.181.196 1.895.808 3.621 2.055 5.11.048.057.094.118.136.18.109.152.044.211-.126.202-1.153-.073-2.295-.206-3.413-.51-2.405-.65-4.203-2.106-5.598-4.058-.84-1.176-1.595-2.41-2.391-3.616-.045-.06-.081-.124-.109-.193-.072-.206-.009-.434.161-.576.136-.09.217.157.298.263 1.719 2.181 3.756 4.01 6.238 5.344.512.275.516.268.516-.288 0-2.115-.413-4.176-.883-6.227-.08-.352-.175-.701-.262-1.051-.027-.106-.117-.237-.015-.329.102-.09.207.01.306.044 1.75.589 3.499 1.18 5.248 1.772.483.163.969.318 1.451.49.204.07.326.05.279-.199-.11-.595-.182-1.198-.326-1.783-.229-.898-.87-1.531-1.576-2.094-.456-.36-.942-.686-1.413-1.029-.253-.184-.51-.366-.753-.562-.914-.742-.837-1.501.207-2.047 1.424-.742 2.934-1.294 4.455-1.827.994-.349 1.998-.667 2.998-1 .084-.037.173-.072.35-.137-.735-.308-1.494-.56-2.27-.753-2.776-.742-5.608-1.22-8.436-1.72-.494-.078-.983-.184-1.464-.319-.231-.06-.451-.154-.652-.28-.396-.266-.407-.697-.018-.977.348-.25.76-.378 1.164-.492 1.847-.518 3.752-.857 5.614-1.342 1.04-.27 2.084-.544 3.05-1.03.452-.215.851-.522 1.17-.901.05-.062.142-.133.076-.22-.066-.087-.142-.007-.217.01-1.25.29-2.515.494-3.79.664-2.433.318-4.672-.114-6.742-1.417-.335-.198-.682-.375-1.04-.53-.947-.449-1.925-.477-2.926-.186-1.732.506-3.444 1.071-5.152 1.647-.172.057-.398.221-.512.118-.139-.129.022-.357.075-.53.315-1.086.813-2.112 1.475-3.036.737-1.068 1.934-1.747 3.249-1.843.652-.06 1.298-.13 2.044-.205-.924-.152-1.76-.248-2.608-.188-.478.03-.953.099-1.42.204-1.275.286-2.183 1.098-3 2.029-1.177 1.346-2.154 2.828-3.058 4.357-.054.09-.075.233-.19.243-.144.013-.169-.146-.222-.24-1.73-3.065-.944-6.68 2.506-8.552 1.21-.657 2.522-.98 3.864-1.222.139-.026.278-.052.417-.075.04-.002.08 0 .12.006zM9.96 13.86c.175.15.146.342.187.502.142.547.278 1.103.399 1.66.195.9.689 1.622 1.331 2.262.345.37.723.708 1.128 1.011.25.175.2.267-.027.41-1.648 1.038-3.291 2.083-4.931 3.133-.667.427-1.32.874-1.973 1.324-.372.254-.37.26-.067.611.324.373.66.737.973 1.117.175.213.332.44.47.678.33.564.263.92-.208 1.373-1.21 1.155-2.42 2.295-3.61 3.472-.693.687-1.396 1.371-1.994 2.146-.11.144-.301.307-.205.485.09.162.325.076.491.066.824-.054 1.65-.127 2.47-.185.199-.015.398-.01.595.014.385.05.557.322.432.685-.144.464-.43.871-.82 1.166-.428.311-.499.57-.256 1.057.318.632.736 1.116 1.517 1.218.781.103 1.531.345 2.321.192.579-.11 1.1-.388 1.63-.625.996-.443 1.98-.908 2.97-1.361.123-.088.276-.123.425-.098l-1.705 1.53c-.63.55-1.289 1.064-1.974 1.542-.762.546-1.593.715-2.504.604-.44-.053-.88-.1-1.31-.171-.31-.052-.541.01-.673.316-.043.099-.11.188-.163.285-.292.58-.22.902.322 1.251.96.605 2.007 1.062 3.104 1.357.305.086.54.014.756-.242.735-.863 1.6-1.598 2.438-2.357.336-.306.77-.47 1.183-.644.99-.403 2-.752 3.029-1.045.089-.026.203-.11.275-.011.071.098-.031.182-.059.273-.076.23-.244.42-.464.525-1.02.565-2.05 1.117-3.047 1.722-1.08.656-2.157 1.325-3.014 2.277-.37.411-.869.424-1.35.32-1.383-.3-2.698-.85-3.877-1.627-.569-.372-.785-.962-.778-1.59.007-.627-.008-1.211-.541-1.691-.26-.234-.308-.646-.44-.984-.275-.68-.643-1.29-1.238-1.749-.231-.187-.428-.414-.58-.67-.19-.3-.238-.667-.134-1.005.363-1.368 1.08-2.551 1.89-3.693.654-.922 1.365-1.803 2.09-2.667.59-.702.78-1.44.58-2.31-.046-.201-.066-.41-.096-.616-.09-.49.056-.993.394-1.361 1.383-1.574 2.735-3.177 4.108-4.76.136-.158.11-.28.05-.444-.425-1.26-.515-2.523-.016-3.789.133-.313.3-.611.496-.89zm161.262 4.814c2.98 1.372 4.917 3.712 5.657 6.945.902 3.942-.02 7.432-2.95 10.247-1.612 1.552-3.59 2.359-5.787 2.622-.446.048-.894.072-1.342.072-3.03-.03-5.666-1.023-7.752-3.321-1.372-1.51-2.161-3.32-2.484-5.342-.338-2.1-.132-4.14.761-6.08 1.467-3.189 3.9-5.152 7.297-5.818 2.256-.444 4.488-.298 6.6.675zm-40.523-.911c1.866-.01 3.6.557 5.266 1.442.23.122.227.255.124.478-.53 1.145-1.053 2.296-1.568 3.45-.11.249-.205.285-.41.114-.595-.513-1.25-.909-2.004-1.066-.646-.135-1.283-.137-1.883.226-1 .606-1.054 1.837-.102 2.533.356.248.742.438 1.147.563 1.024.35 2.073.646 3.04 1.185 1.734.964 2.619 2.485 2.601 4.64-.007.85-.039 1.69-.24 2.514-.5 2.058-1.739 3.382-3.51 4.083-2.865 1.141-5.609.682-8.243-.885-.297-.177-.573-.396-.864-.587-.153-.102-.179-.217-.096-.392.589-1.24 1.174-2.482 1.756-3.726.12-.257.236-.175.378-.04.569.556 1.211 1.012 1.905 1.353.837.401 1.704.575 2.611.368.907-.208 1.47-.917 1.457-1.849.005-.484-.217-.937-.587-1.2-.705-.538-1.528-.759-2.328-1.038-.782-.274-1.57-.53-2.31-.93-1.25-.676-1.944-1.791-2.166-3.283-.22-1.465-.102-2.886.436-4.242.836-2.094 2.34-3.249 4.363-3.637.407-.062.817-.087 1.227-.074zm-43.932.914c3.11 1.45 4.989 3.93 5.74 7.308.156.686.223 1.39.199 2.095.063 4.429-2.506 8.374-6.58 9.757-4.183 1.421-8.062.805-11.324-2.376-1.64-1.597-2.486-3.642-2.787-5.92-.4-3.019.348-5.71 2.24-8.074 1.61-2.01 3.725-3.147 6.226-3.543 2.16-.34 4.283-.18 6.286.753zm-32.66-.917c.494 0 .495 0 .495.539v13.9c.005.1.005.2 0 .3-.033.3.078.403.373.4 1.586-.014 3.171-.006 4.757-.006.442 0 .476 0 .478.392v3.53c0 .398-.012.44-.34.444h-9.635c-.41 0-.42-.014-.42-.451-.003-3.1-.004-6.2-.004-9.3v-9.233c0-.515 0-.515.484-.515h3.812zm95.274.02c2.039.027 3.65.926 4.769 2.678.588.942.915 2.03.946 3.147.055 1.195-.038 2.372-.45 3.507-.743 2.057-2.173 3.237-4.299 3.557-.592.09-1.19.133-1.79.128-.806-.006-1.612.01-2.418-.006-.295-.007-.395.08-.393.393.013 1.866.007 3.732 0 5.598 0 .441 0 .475-.377.477h-4.115c-.435 0-.443-.012-.443-.443.003-3.1.005-6.198.005-9.296v-9.263c0-.489 0-.49.493-.49 2.691 0 5.382-.023 8.072.012zm-80.49-.02c.343 0 .42.122.42.428-.01 3.11-.012 6.218-.006 9.327v9.261c0 .477 0 .478-.5.478-1.419 0-2.839-.007-4.258.006-.325 0-.438-.095-.436-.417.008-6.219.008-12.437 0-18.655 0-.305.074-.433.419-.428 1.454.015 2.907.015 4.361 0zm139.115 0c.295 0 .408.086.405.394-.012 1.189-.012 2.377 0 3.565 0 .305-.11.41-.406.406-1.07-.01-2.143 0-3.213 0-.436 0-.443 0-.443.444-.007 2.369-.01 4.741-.009 7.119v7.1c0 .432-.005.468-.364.471h-4.09c-.493 0-.494 0-.494-.493v-14.09c0-.518 0-.553-.43-.555h-3.115c-.407 0-.436-.03-.436-.427v-3.532c0-.3.092-.402.396-.402 4.066.009 8.132.009 12.199 0zm-27.797 0c2.622.013 5.244-.01 7.865.016 1.416.015 2.71.444 3.765 1.461 2.124 2.045 2.455 5.817.721 8.212-.635.877-1.56 1.492-2.603 1.732-.297.075-.32.142-.135.39 1.808 2.42 3.611 4.846 5.408 7.277.075.101.233.2.163.333-.07.132-.24.058-.366.058-1.77 0-3.538 0-5.308.008-.24.02-.469-.109-.58-.327-1.375-2.227-2.757-4.449-4.147-6.666-.05-.12-.132-.224-.236-.3v6.8c0 .485 0 .488-.465.488-1.354 0-2.709-.008-4.062.005-.313 0-.418-.097-.418-.418.006-6.212.006-12.425 0-18.636 0-.3.064-.436.398-.433zm-80.471.001c.233-.016.456.1.586.303 2.706 3.703 5.417 7.403 8.131 11.1.063.085.103.196.218.236.066-.128.033-.263.033-.391V18.287c0-.517 0-.517.49-.517 1.304 0 2.609.008 3.915-.007.303 0 .4.09.4.413-.009 6.228-.009 12.456 0 18.684 0 .31-.1.403-.386.4-1.357-.01-2.715-.01-4.074 0-.214.008-.416-.105-.529-.296-2.508-3.43-5.017-6.857-7.529-10.283-.263-.359-.529-.717-.807-1.094-.116.13-.072.268-.072.39v10.722c0 .555 0 .555-.52.555-1.294 0-2.59-.008-3.883.005-.303 0-.4-.097-.4-.419.007-6.216.007-12.433 0-18.65 0-.341.105-.432.416-.428 1.337.016 2.675.012 4.011 0zm67.072 5c-3.012-.008-5.23 2.602-5.23 5.4.004 2.851 2.242 5.418 5.208 5.422 2.69.03 5.241-2.16 5.244-5.415 0-3.126-2.393-5.4-5.222-5.407zm-84.482-.02c-2.892 0-5.23 2.408-5.23 5.392-.001 3.017 2.317 5.418 5.23 5.418v-.001c2.878 0 5.229-2.427 5.229-5.404 0-2.976-2.354-5.403-5.23-5.404zm-61.521-1.056c.517.027.913.266 1.275.557.753.605 1.393 1.275 1.642 2.155.165.533.093 1.1-.204 1.59-.448.713-.953 1.4-1.512 2.055-.046.042-.097.082-.15.118-.063-.281-.07-.57-.021-.852.074-.655.055-1.312.064-1.965.012-.891-.466-1.574-1.316-2.066-.64-.371-1.273-.748-1.815-1.222-.064-.056-.177-.1-.157-.188.026-.118.175-.087.268-.101.634-.105 1.282-.133 1.926-.081zM9.126 26.865l4.13.413c.055.01.107.023.155.04-.142.083-.339.105-.5.149-.635.175-1.265.356-1.915.52-.755.203-1.667.23-2.468.07-.258-.05-.436-.105-.222-.254.121-.102.172-.22.146-.336-.01-.196.127-.388.387-.541.053-.05.173-.076.287-.061zm136.902-4.994c-.218-.009-.277.1-.276.304.005.689 0 1.377 0 2.064v2.1c0 .202.055.309.276.305.61-.01 1.22.017 1.829-.016 1.096-.063 1.769-.575 2.006-1.491.094-.366.127-.746.097-1.123-.092-1.211-.761-1.924-1.944-2.088-.662-.093-1.326-.028-1.988-.055zm39.057-.153c-.264-.01-.337.104-.327.356.006.663-.002 1.328-.002 1.992v2.06c0 .173.018.31.238.307.567-.007 1.133.03 1.696-.082 1.107-.2 1.909-1.184 1.896-2.328-.014-1.093-.826-2.019-1.935-2.227-.521-.097-1.044-.056-1.566-.078zM15.546 8.667c.105.035.063.144.063.223-.001.68-.003 1.364-.003 2.049 0 .995.026 1.99.075 2.984.048.83.145 1.655.293 2.472.033.195.044.393.032.59-.029.536-.426.851-.977.76-.272-.049-.533-.148-.767-.292-1.309-.783-2.341-1.78-2.799-3.265-.235-.775-.56-1.523-.638-2.34-.027-.237-.016-.476.03-.71.016-.078.012-.187.12-.19.083 0 .106.091.135.156.254.632.618 1.205.99 1.775.326.5.64 1.01 1.136 1.375.22.16.492.414.726.31.234-.103.048-.448.054-.686.049-1.79.258-3.541 1.356-5.065.044-.062.07-.181.174-.146z" transform="translate(-.3 -8.155)"/>
    </g>
</svg>
