<svg xmlns="http://www.w3.org/2000/svg" width="244" height="51" viewBox="0 0 244 51">
    <g fill="none" fill-rule="evenodd">
        <path d="M0 0H247V50.7H0z" transform="translate(-3.3 -.155)"/>
        <path fill="#BBC3CA" fill-rule="nonzero" d="M28.701.175c13.817 0 25.018 11.2 25.018 25.016 0 13.817-11.201 25.016-25.018 25.016-13.815 0-25.016-11.2-25.016-25.016C3.685 11.375 14.886.175 28.701.175zm18.035 10.746c2.98 3.874 4.947 9.03 4.947 14.295 0 12.69-10.288 22.979-22.979 22.979-11.436 0-20.922-8.357-22.685-19.296.744 5.752 3.756 11.164 7.634 14.57 3.985 3.499 9.335 5.404 15.051 5.404 13.065 0 23.657-10.592 23.657-23.657 0-5.335-2.606-11.966-5.625-14.295zM28.753 2.666h-.052l-.147.002-2.022 20.741-1.4-.84 3.05-19.898c-12.2.277-22.006 10.254-22.006 22.52-.006 3.804.956 7.546 2.795 10.875l15.592-13.013 1.481.84-16.95 12.395.127.219 19.15-11.005v3.88L9.386 36.786c3.939 6.55 11.115 10.931 19.314 10.931 8.208 0 15.39-4.39 19.327-10.95L29.03 29.422V25.54l19.128 11.005.13-.224-17.009-12.43 1.481-.84 15.635 13.083c1.804-3.24 2.834-6.97 2.834-10.944 0-12.364-9.963-22.399-22.298-22.522l3.503 19.743-3.482 2.081-.199-21.827zM28.701.612C15.135.612 4.138 11.61 4.138 25.176c0 7.772 3.645 14.7 9.28 19.2-1.439-1.522-2.516-2.675-3.512-4.538-2.937-4.335-4.862-9.354-4.862-14.66 0-13.066 10.591-23.658 23.657-23.658 12.85 0 24.03 10.887 24.37 23.656v-.014l.009-.378C53.248 11.99 42.356.84 29.108.616zm66.463 18.291c4.259 0 6.198 3.557 6.198 7.945h-9.286c-.06 2.16.186 6.676 3.704 6.605 3.088-.06 3.89-2.84 4.013-4.073l1.447.005c-.643 3.327-1.878 5.407-6.076 5.407-4.323 0-6.2-3.557-6.2-7.944 0-4.388 2.248-7.945 6.2-7.945zm65.52 0c4.259 0 6.198 3.557 6.198 7.945h-9.286c-.06 2.16.186 6.676 3.705 6.605 3.088-.06 3.89-2.84 4.012-4.074l1.447.006c-.645 3.327-1.878 5.407-6.076 5.407-4.323 0-6.201-3.557-6.201-7.944 0-4.388 2.25-7.945 6.2-7.945zm50.753 0c4.262 0 6.199 3.557 6.199 7.945h-9.286c-.06 2.16.186 6.676 3.705 6.605 3.087-.06 3.89-2.84 4.014-4.074l1.444.006c-.642 3.327-1.878 5.407-6.076 5.407-4.322 0-6.198-3.557-6.198-7.944 0-4.388 2.247-7.945 6.198-7.945zm-79.046 0c4.258 0 6.198 3.557 6.198 7.945h-9.286l-.003.139c-.045 2.209.262 6.537 3.708 6.467 3.085-.06 3.89-2.84 4.012-4.074l1.447.005c-.645 3.327-1.879 5.407-6.076 5.407-4.323 0-6.201-3.557-6.201-7.944 0-4.388 2.247-7.945 6.2-7.945zm18.655-6.085c.62-.186.988.402.988 1.111v17.225c0 .617-.246 1.914 2.347 1.79v.617c-1.237.073-2.46.301-3.64.678-.618.185-1.019-.647-1.082-1.203-.062-.279-.247-.124-.277 0-.37.587-2.16 1.697-3.52 1.697-1.358 0-5.865-.492-5.865-8.21 0-5.865 3.89-7.531 5.99-7.531 1.664 0 2.591.74 3.393 1.482v-5.31c0-.617-.186-1.173-1.976-1.05v-.617c1.238-.073 2.461-.301 3.642-.679zm-26.81 5.817v5.186h-.802c0-2.037-1.545-3.828-4.075-3.828-2.962 0-3.148 5.434-3.148 6.792-.061 2.16.186 6.685 3.704 6.605 2.778-.062 3.21-2.902 3.333-4.136l1.447.006c-.644 3.328-1.57 5.489-5.398 5.47-4.322-.021-6.2-3.557-6.2-7.945 0-4.389 2.25-7.945 6.2-7.945 1.392 0 2.536.38 3.446 1.045l.814-1.25h.679zm53.986-.123v4.937h-.677c-.25-1.913-1.236-3.58-3.212-3.519-1.975.063-2.838 1.112-3.024 2.1-.134.868.317 1.721 1.11 2.1 1.241.62 2.853 1.527 4.692 2.283 2.1.865 2.53 3.705 1.606 5.434-.926 1.728-3.273 2.654-4.94 2.654-1.666 0-2.964-.926-3.581-1.482l-.618 1.358h-.677v-5.245h.619c.556 3.147 2.9 4.197 4.382 4.197 1.482 0 2.407-.989 2.902-1.852.493-.865.061-2.347-.68-2.717-.74-.37-1.976-1.05-4.63-2.16-2.655-1.114-2.963-3.828-1.853-5.557 1.111-1.729 3.087-2.346 4.26-2.346 1.173 0 1.729.123 3.024.988l.68-1.173h.617zm48.413.433c1.297 0 5 .123 5.061 4.26v9.074c0 1.111.988 1.297 1.545 1.297h.617v.802h-6.729v-.802h.371c.556 0 1.544-.186 1.544-1.297v-9.136c0-1.173-.433-2.84-2.966-2.655-2.531.186-3.027 2.348-3.027 3.705v8.087c0 1.112.988 1.298 1.545 1.298h.617v.802h-7.221v-.802h.863c.556 0 1.544-.186 1.544-1.298V22.156c0-.618.246-1.914-2.346-1.79v-.618c1.237-.073 2.46-.3 3.641-.678.62-.185.866.37.927.925.061.555.506.75.866.247.307-.433 1.79-1.297 3.148-1.297zm-116.595 0c1.729 0 2.714.803 2.839 2.531.115 1.595-.613 1.824-1.26 1.898l-.16.016c-.68.06-1.482-.557-1.358-1.482.125-.926-.185-1.173-.679-1.173-1.296 0-2.592.926-2.592 3.457v8.087c0 1.111.988 1.297 1.543 1.297h.618v.804h-7.224v-.802h.864c.556 0 1.544-.186 1.544-1.298V22.156c0-.618.246-1.914-2.346-1.79v-.618c1.238-.073 2.462-.3 3.643-.678.617-.185.864.37.925.925.061.555.506.75.865.247.308-.433 1.42-1.297 2.778-1.297zm136.857.31l-9.014 14.26h4.814c1.111 0 1.976-.433 3.149-3.273h.495l-.988 4.136H234.61l8.953-14.26-4.176.001c-.948.01-2.019.18-3.48 3.333h-.617l1.111-4.198h10.496zm-49.057-5.818c4.323 0 5.003 3.025 5.003 4.815 0 1.79-1.482 4.445-2.965 4.815 2.965.618 3.953 3.025 3.953 5.064-.12 5.844-5.023 6.215-7.414 6.234h-7.836v-.864c2.47 0 2.53-1.42 2.53-2.284v-15.25c0-1.542-1.604-1.728-2.53-1.728v-.802zm-126.601 0l5.803 15.185 5.803-15.185h5.619v.988H87.29c-.617 0-1.235.616-1.235 1.172l.31 16.545c0 .865.803 1.235 1.481 1.235h.926v.988h-7.84v-.988h1.296c.864 0 1.42-.74 1.42-1.296l-.309-16.237-6.728 17.471h-.679L69.265 16.03l-.308 16.051c0 1.05.555 1.296 1.359 1.296h1.049v.988H65.13l.062-.988h.926c1.235 0 1.544-.678 1.544-1.296l.308-16.73c0-.865-.865-.926-1.544-.926H65.5l.063-.988h5.676zM30.342 24.41l14.009 9.605-15.128-8.964 1.119-.64zm115.766-4c-3.024-.37-3.148 3.889-3.148 6.05 0 2.162-.246 7.225 3.087 7.286 1.482 0 3.272-1.05 3.333-4.445h.002v-3.397c0-1.914-.247-5.123-3.274-5.494zm51.177 3.52h-3.519v9.446h3.149c2.345 0 4.199-1.852 4.199-4.94 0-3.086-1.79-4.505-3.829-4.505zm-170.122.547l.92.56-5.562 3.281 4.642-3.841zm105.35-4.234c-2.974 0-3.143 3.316-3.15 4.939l.001.43h6.112c0-2.035-.37-5.37-2.963-5.37zm28.293-.002c-2.972 0-3.142 3.317-3.149 4.94v.43h6.112c0-2.035-.368-5.37-2.963-5.37zm-65.52 0c-2.973 0-3.143 3.317-3.149 4.94v.43h6.112c0-2.035-.37-5.37-2.963-5.37zm116.276 0c-2.975 0-3.143 3.317-3.149 4.94v.43h6.112c0-2.035-.37-5.37-2.963-5.37zm-23.288 3.88v1.42h-8.147v-1.42h8.147zM28.538 5.608l-.12 18.931-1.041-.6 1.16-18.33zm168.316 8.816h-3.088v8.519h3.088c2.407 0 3.21-2.037 3.21-4.692 0-2.162-.925-3.827-3.21-3.827z" transform="translate(-3.3 -.155)"/>
    </g>
</svg>
