<svg xmlns="http://www.w3.org/2000/svg" width="40" height="40" viewBox="0 0 40 40">
    <path fill="#2F3C54" d="M7.791 4.533v1.552c-.036.675.3 1.316.875 1.664.574.35 1.293.35 1.867 0 .53-.322.858-.892.877-1.51l-.002-.154V4.533H28.13v1.552c-.036.675.301 1.316.875 1.664.575.35 1.293.35 1.868 0 .53-.322.858-.892.877-1.51l-.002-.154V4.533h1.543c3.372 0 6.12 2.695 6.243 6.068l.005.23v18.717c0 1.672-.659 3.275-1.83 4.456-1.103 1.112-2.576 1.765-4.126 1.837l-.292.006H6.242c-3.37 0-6.117-2.696-6.238-6.068L0 29.55V10.831C0 7.43 2.672 4.658 6.013 4.537l.23-.004H7.79zm19.521 7.685c-.356-.208-.723-.268-1.106-.176-.383.091-.683.306-.901.644l-6.184 9.487-2.499-3.123c-.244-.312-.566-.495-.96-.546-.398-.052-.752.038-1.067.273-.312.235-.505.54-.573.918-.068.376.021.721.266 1.034l3.769 4.725c.3.364.681.546 1.146.546h.082c.519-.027.914-.247 1.188-.663l7.288-11.206c.219-.312.287-.658.206-1.035-.082-.378-.3-.67-.655-.878zM10.533.262c.53.321.858.892.877 1.509l-.002.155v2.607H7.791V1.926c-.036-.675.3-1.316.875-1.664.574-.35 1.293-.35 1.867 0zm20.339 0c.53.321.858.892.877 1.509l-.002.155v2.607H28.13V1.926c-.037-.675.3-1.316.874-1.664.575-.35 1.293-.35 1.868 0z"/>
</svg>
