<?xml version="1.0" encoding="utf-8"?>
<!-- Generator: Adobe Illustrator 27.5.0, SVG Export Plug-In . SVG Version: 6.00 Build 0)  -->
<svg version="1.1" id="Layer_1" xmlns="http://www.w3.org/2000/svg" xmlns:xlink="http://www.w3.org/1999/xlink" x="0px" y="0px"
	 viewBox="0 0 747.05 175.87" style="enable-background:new 0 0 747.05 175.87;" xml:space="preserve" width="157" height="37">
<style type="text/css">
	.st0{filter:url(#Adobe_OpacityMaskFilter);}
	.st1{fill-rule:evenodd;clip-rule:evenodd;fill:#FFFFFF;}
	.st2{mask:url(#mask-2_00000035505796829591266440000015074067859055780482_);fill-rule:evenodd;clip-rule:evenodd;fill:#84BD00;}
	.st3{fill:#2E3C54;}
</style>
<defs>
	<filter id="Adobe_OpacityMaskFilter" filterUnits="userSpaceOnUse" x="0" y="0" width="175.87" height="175.87">
		<feColorMatrix  type="matrix" values="1 0 0 0 0  0 1 0 0 0  0 0 1 0 0  0 0 0 1 0"/>
	</filter>
</defs>
<mask maskUnits="userSpaceOnUse" x="0" y="0" width="175.87" height="175.87" id="mask-2_00000035505796829591266440000015074067859055780482_">
	<g class="st0">
		<polygon id="path-1_00000086693362253404130250000005770221853288300473_" class="st1" points="0,0 175.87,0 175.87,175.87 
			0,175.87 		"/>
	</g>
</mask>
<path id="Fill-1" class="st2" d="M110.92,134.39c0,0-2.62,0.42-6.47,0.42c-11.28,0-32.82-3.08-32.82-27.24V79.64h-9.98V62.18h10.66
	V51.13L94.54,35.3v26.89h15.41v17.46H94.54v25.42c0,8.66,8.12,9.92,12.66,9.92c1.93,0,3.71-0.14,3.71-0.14V134.39z M87.94,0
	C39.37,0,0,39.37,0,87.94c0,48.56,39.37,87.94,87.94,87.94c48.57,0,87.94-39.37,87.94-87.94C175.87,39.37,136.5,0,87.94,0L87.94,0z"
	/>
<g>
	<path class="st3" d="M236.86,108.6c-3.43,0-9.58-0.94-9.58-7.39V81.84h11.24V69.37h-11.24v-5.71V49.23v-0.8l-17.48,11.8v3.43h0
		v5.71h-7.81v12.47h7.28v21.25c0,18,16.55,20.29,25.08,20.29c2.91,0,4.89-0.31,4.89-0.31V108.5
		C239.25,108.5,238.31,108.6,236.86,108.6z"/>
	<path class="st3" d="M666.35,50.3v21.15c0,1.33,0.1,2.36,0.1,2.36h-0.21c0,0-3.18-4.21-13.86-4.21
		c-14.06,0-24.12,10.88-24.12,27.61c0,16.42,9.44,27.72,23.82,27.72c10.88,0,15.3-7.7,15.3-7.7h0.21c0,0-0.1,1.33-0.1,2.98v3.17
		h16.63V50.3H666.35z M656.49,110.25c-6.16,0-10.37-5.13-10.37-13.04c0-8.11,4.82-12.63,10.37-12.63c6.98,0,10.37,6.26,10.37,12.63
		C666.86,106.35,661.83,110.25,656.49,110.25z"/>
	<path class="st3" d="M596.94,69.6c-13.04,0-22.17,6.88-22.17,6.88L580.92,89c0,0,7.6-5.03,14.27-5.03c4.41,0,7.8,1.44,7.8,5.85
		v0.92h-0.72c-8.21,0-30.7,1.75-30.7,17.14c0,10.47,8.11,17.04,17.96,17.04c11.09,0,14.99-7.7,14.99-7.7h0.21
		c0,0-0.21,1.54-0.21,3.28v2.86h16.22V91.16C620.75,77.71,611.82,69.6,596.94,69.6z M603.2,102.04c0,4.31-4.11,9.34-8.73,9.34
		c-3.49,0-5.03-1.95-5.03-4.41c0-4.41,6.47-6.06,12.11-6.06h1.64V102.04z"/>
	<path class="st3" d="M544.78,110.15c-5.65,0-10.98-2.98-12.32-9.44h33.36c0,0,0.41-3.8,0.41-5.54c0-14.68-8.83-25.56-24.43-25.56
		c-17.04,0-27.51,12.11-27.51,27.61c0,14.06,10.16,27.72,29.05,27.72c14.06,0,22.59-7.7,22.59-7.7l-6.57-12.42
		C559.36,104.81,552.38,110.15,544.78,110.15z M541.4,82.95c4.21,0,6.98,3.59,6.98,7.6h-15.5C533.8,86.64,536.26,82.95,541.4,82.95z
		"/>
	<path class="st3" d="M453.41,123.44h17.76v-23.41c0-2.46,0.21-4.72,0.92-6.78c1.54-4.62,5.13-7.8,10.57-7.8
		c3.9,0,5.85,2.05,5.85,6.98v31h17.76V89.16c0-14.88-8.31-19.81-18.99-19.81c-6.98,0-13.14,3.18-16.12,8.42h-0.2
		c0,0,0.2-1.85,0.2-4.52v-23.2h-17.76V123.44z"/>
	<path class="st3" d="M361,123.38h17.76v-21.87c0-2.26,0.1-4.62,0.51-6.57c1.23-5.65,4.11-9.55,9.65-9.55
		c3.39,0,4.11,2.77,4.11,6.67v31.31h17.76v-21.87c0-2.16,0-4.31,0.41-6.16c1.13-5.85,4.11-9.96,9.75-9.96c3.39,0,4.1,2.77,4.1,6.67
		v31.31h17.76V89.1c0-14.58-7.49-19.81-17.14-19.81c-7.9,0-14.17,4.52-16.94,8.93h-0.21c-2.77-5.95-8.11-8.93-14.78-8.93
		c-8.32,0-13.24,5.44-15.71,9.14h-0.21c0,0,0.21-1.54,0.21-3.28v-4.62H361V123.38z"/>
	<path class="st3" d="M327.29,69.6c-13.04,0-22.17,6.88-22.17,6.88L311.27,89c0,0,7.6-5.03,14.27-5.03c4.41,0,7.8,1.44,7.8,5.85
		v0.92h-0.72c-8.21,0-30.69,1.75-30.69,17.14c0,10.47,8.11,17.04,17.96,17.04c11.09,0,14.99-7.7,14.99-7.7h0.21
		c0,0-0.21,1.54-0.21,3.28v2.86h16.22V91.16C351.11,77.71,342.18,69.6,327.29,69.6z M333.55,102.04c0,4.31-4.11,9.34-8.73,9.34
		c-3.49,0-5.03-1.95-5.03-4.41c0-4.41,6.47-6.06,12.11-6.06h1.64V102.04z"/>
	<path class="st3" d="M274.83,110.15c-5.65,0-10.98-2.98-12.32-9.44h33.36c0,0,0.41-3.8,0.41-5.54c0-14.68-8.83-25.56-24.43-25.56
		c-17.04,0-27.51,12.11-27.51,27.61c0,14.06,10.16,27.72,29.05,27.72c14.06,0,22.58-7.7,22.58-7.7l-6.57-12.42
		C289.41,104.81,282.43,110.15,274.83,110.15z M271.45,82.95c4.21,0,6.98,3.59,6.98,7.6h-15.5
		C263.85,86.64,266.31,82.95,271.45,82.95z"/>
	<path class="st3" d="M737.18,108.26h-18.91l23.33-29.57V69.6h-48.06v15.15h18.91c0.37,0,0.7,0,1.03-0.01h2.8l-23.58,29.68v8.99
		h54.36L737.18,108.26z"/>
</g>
</svg>
