<svg xmlns="http://www.w3.org/2000/svg" width="160" height="160" viewBox="0 0 160 160">
    <g fill="none">
        <circle cx="80" cy="80" r="80" fill="#2F3C54"/>
        <path fill="#84BD01" stroke="#84BD01" d="M36.95 96.312c5.564 0 8.268-3.64 8.268-8.996v-2.6c0-3.796-1.3-6.76-4.836-7.8 3.432-.936 4.836-3.9 4.836-7.644v-1.144c0-5.408-2.808-8.84-8.268-8.84-5.512 0-8.268 3.432-8.268 8.84v1.144c0 3.848 1.352 6.656 4.888 7.644-3.64 1.092-4.888 3.952-4.888 7.8v2.6c0 5.356 2.652 8.996 8.268 8.996zm0-20.384c-3.848 0-5.876-2.132-5.876-6.24V68.18c0-4.264 1.976-6.708 5.876-6.708 3.848 0 5.876 2.444 5.876 6.708v1.508c0 4.108-2.028 6.24-5.876 6.24zm0 18.2c-3.952 0-5.876-2.652-5.876-6.864v-2.756c0-4.264 1.872-6.396 5.876-6.396 3.952 0 5.876 2.132 5.876 6.396v2.756c-.052 4.212-1.924 6.864-5.876 6.864zM64.51 96v-2.184h-13V93.4c.156-10.712 13.312-14.352 13.312-24.856 0-5.304-2.184-9.256-7.852-9.256-5.616 0-7.852 4.108-7.852 9.36v2.34h2.288v-2.496c0-3.9 1.456-7.02 5.46-7.02 4.16 0 5.564 2.964 5.564 7.176 0 9.984-13.312 12.74-13.312 25.584V96H64.51zm20.124.312c5.564 0 8.008-3.9 8.008-9.204V68.492c0-5.356-2.444-9.204-8.008-9.204-5.564 0-8.008 3.848-8.008 9.204v18.616c0 5.304 2.444 9.204 8.008 9.204zm0-2.184c-4.004 0-5.616-2.912-5.616-6.916V68.336c0-3.952 1.612-6.864 5.616-6.864s5.616 2.912 5.616 6.864v18.876c0 4.004-1.612 6.916-5.616 6.916zm19.812 2.184c5.564 0 8.008-3.9 8.008-9.204V68.492c0-5.356-2.444-9.204-8.008-9.204-5.564 0-8.008 3.848-8.008 9.204v18.616c0 5.304 2.444 9.204 8.008 9.204zm0-2.184c-4.004 0-5.616-2.912-5.616-6.916V68.336c0-3.952 1.612-6.864 5.616-6.864s5.616 2.912 5.616 6.864v18.876c0 4.004-1.612 6.916-5.616 6.916zm19.812 2.184c5.564 0 8.008-3.9 8.008-9.204V68.492c0-5.356-2.444-9.204-8.008-9.204-5.564 0-8.008 3.848-8.008 9.204v18.616c0 5.304 2.444 9.204 8.008 9.204zm0-2.184c-4.004 0-5.616-2.912-5.616-6.916V68.336c0-3.952 1.612-6.864 5.616-6.864s5.616 2.912 5.616 6.864v18.876c0 4.004-1.612 6.916-5.616 6.916z"/>
    </g>
</svg>
