<svg width="24" height="24" viewBox="0 0 24 24" xmlns="http://www.w3.org/2000/svg">
  <defs>
    <clipPath id="a">
      <path d="M1440 0v3534H0V0h1440Z"/>
    </clipPath>
    <clipPath id="b">
      <path d="M12 0c6.627 0 12 5.373 12 12s-5.373 12-12 12S0 18.627 0 12 5.373 0 12 0Z"/>
    </clipPath>
    <clipPath id="c">
      <path d="M8.978 0c.357 0 .664.117.922.348.258.233.386.51.386.832 0 .323-.128.6-.386.831l-3 3.133 3 3.13c.258.233.386.51.386.832 0 .322-.128.599-.386.832a1.329 1.329 0 0 1-.922.348c-.356 0-.663-.116-.921-.348L5.142 6.96 2.229 9.938a1.329 1.329 0 0 1-.922.348c-.356 0-.663-.116-.921-.348A1.082 1.082 0 0 1 0 9.106c0-.321.128-.599.386-.831l3-3.131-3-3.133A1.077 1.077 0 0 1 0 1.18C0 .858.128.58.386.348.644.118.95 0 1.307 0c.357 0 .664.117.922.348l2.913 2.978L8.057.348A1.34 1.34 0 0 1 8.978 0Z"/>
    </clipPath>
  </defs>
  <g clip-path="url(#a)" transform="translate(-1056 -1009)">
    <g clip-path="url(#b)" transform="translate(1056 1009)">
      <path fill="#FF315A" d="M0 0h24v24H0V0z"/>
    </g>
    <g clip-path="url(#c)" transform="translate(1062.857 1015.857)">
      <path fill="#FFF" d="M0 0h10.286v10.286H0V0z"/>
    </g>
  </g>
</svg>
