<svg xmlns="http://www.w3.org/2000/svg" width="40" height="40" viewBox="0 0 40 40">
    <g fill="none" fill-rule="evenodd">
        <circle cx="20" cy="20" r="20" fill="#FFF"/>
        <g fill="#84BD01" transform="translate(9 10)">
            <path d="M18.653 0c1.932 0 3.5 1.745 3.5 3.9v3.53C23.207 7.645 24 8.577 24 9.693c0 1.117-.793 2.048-1.847 2.262v3.531c0 1.035-.368 2.027-1.025 2.759-.656.731-1.547 1.141-2.475 1.14H3.498C1.566 19.385 0 17.64 0 15.486V3.9C0 1.746 1.566 0 3.498 0zm3.04 7.385h-4.616c-1.275 0-2.308 1.033-2.308 2.307 0 1.275 1.033 2.308 2.308 2.308h4.615c.158 0 .312-.016.461-.046V7.43c-.149-.03-.303-.046-.46-.046z"/>
            <circle cx="18" cy="9.692" r="1.385"/>
        </g>
    </g>
</svg>
