<svg xmlns="http://www.w3.org/2000/svg" width="40" height="40" viewBox="0 0 40 40">
    <g fill="none" fill-rule="evenodd">
        <circle cx="20" cy="20" r="20" fill="#FFF"/>
        <g transform="translate(8 8)">
            <circle cx="12" cy="12" r="12" fill="#84BD01"/>
            <path fill="#FFF" fill-rule="nonzero" d="M11.004 17v-3.301h1.81c.781 0 1.448-.145 2-.435.552-.29.974-.693 1.266-1.208.291-.516.437-1.111.437-1.788 0-.676-.143-1.273-.43-1.792-.287-.518-.702-.925-1.245-1.218-.544-.293-1.202-.44-1.974-.44H8.85V17h2.153zm1.461-5.026h-1.461V8.578h1.451c.623 0 1.087.155 1.39.465.303.31.455.718.455 1.225 0 .504-.152.914-.455 1.23-.303.317-.763.476-1.38.476z"/>
        </g>
    </g>
</svg>
