<svg xmlns="http://www.w3.org/2000/svg" width="40" height="40" viewBox="0 0 40 40">
    <g fill="none" fill-rule="evenodd">
        <circle cx="20" cy="20" r="20" fill="#FFF"/>
        <g fill-rule="nonzero">
            <path fill="#84BD01" d="M4.675 2.695v.923c-.022.402.18.782.525.99.344.207.775.207 1.12 0 .345-.208.547-.588.525-.99v-.923h10.033v.923c-.022.402.18.782.525.99.344.207.775.207 1.12 0 .345-.208.547-.588.525-.99v-.923h.926c2.07 0 3.747 1.676 3.749 3.745v11.13c0 .993-.395 1.946-1.098 2.649-.704.702-1.657 1.097-2.65 1.096H3.744C1.677 21.315 0 19.638 0 17.569V6.44c0-2.068 1.677-3.745 3.745-3.745h.93zM5.2.155c.344-.207.775-.207 1.12 0 .345.208.547.589.525.99v1.55h-2.17v-1.55c-.022-.401.18-.782.525-.99zm12.203 0c.344-.207.775-.207 1.12 0 .345.208.547.589.525.99v1.55h-2.17v-1.55c-.022-.401.18-.782.525-.99z" transform="translate(8 8)"/>
            <g fill="#FFF">
                <path d="M-.53-.53c.266-.267.683-.29.976-.073L.53-.53l10 10c.293.293.293.767 0 1.06-.266.267-.683.29-.976.073l-.084-.073-10-10c-.293-.293-.293-.767 0-1.06z" transform="translate(8 8) translate(7 7)"/>
                <path d="M9.47-.53c.293-.293.767-.293 1.06 0 .267.266.29.683.073.976L10.53.53l-10 10c-.293.293-.767.293-1.06 0-.267-.266-.29-.683-.073-.976l.073-.084 10-10z" transform="translate(8 8) translate(7 7)"/>
            </g>
        </g>
    </g>
</svg>
