<svg xmlns="http://www.w3.org/2000/svg" width="40" height="40" viewBox="0 0 40 40">
    <g fill="none" fill-rule="evenodd">
        <circle cx="20" cy="20" r="20" fill="#FFF"/>
        <path fill="#84BD01" d="M15.202 26.871c.866 2.728 2.134 5.313 3.76 7.668-3.9-.358-7.483-2.301-9.911-5.375l.511-.319c1.745-.994 3.656-1.662 5.64-1.974zm10.166 0c1.984.312 3.894.98 5.64 1.974l.508.319c-2.428 3.074-6.011 5.016-9.912 5.375 1.628-2.355 2.896-4.94 3.764-7.668zm-5.083-.458c1.009.001 2.017.054 3.02.157-.738 2.205-1.753 4.307-3.02 6.256-1.268-1.95-2.283-4.051-3.021-6.256 1.004-.103 2.012-.156 3.02-.157zm14.285-5.12c-.152 2.177-.803 4.29-1.901 6.175l-.579-.36c-1.912-1.109-4.008-1.862-6.189-2.224.263-1.181.426-2.382.489-3.59zm-20.39 0c.062 1.209.225 2.41.488 3.59-2.18.363-4.277 1.116-6.189 2.225l-.578.36C6.802 25.583 6.152 23.47 6 21.293zm10.17 0c-.067 1.104-.227 2.2-.48 3.277-2.38-.272-4.786-.272-7.167 0-.254-1.076-.415-2.173-.483-3.277zm-.481-5.324c.253 1.076.414 2.173.481 3.276h-8.13c.067-1.103.228-2.2.48-3.276 1.19.136 2.387.204 3.585.204 1.197 0 2.394-.068 3.584-.204zm8.8-2.897c1.098 1.885 1.748 3.997 1.9 6.173h-8.18c-.062-1.206-.225-2.405-.488-3.584 2.181-.363 4.278-1.119 6.19-2.229zm-24.769 0l.58.36c1.91 1.11 4.008 1.866 6.188 2.23-.262 1.178-.426 2.377-.488 3.583H6c.152-2.176.802-4.288 1.9-6.173zm12.385-5.358c1.267 1.949 2.282 4.05 3.02 6.255-1.003.104-2.011.156-3.02.156-1.01 0-2.017-.052-3.021-.156.739-2.204 1.754-4.306 3.02-6.255zM21.607 6c3.9.36 7.483 2.302 9.912 5.376l-.512.317c-1.744.995-3.655 1.665-5.639 1.976-.867-2.729-2.135-5.313-3.761-7.669zm-2.641 0c-1.628 2.356-2.896 4.94-3.764 7.669-1.984-.312-3.895-.98-5.64-1.976l-.508-.317C11.482 8.302 15.065 6.359 18.966 6z"/>
    </g>
</svg>
