<svg width="51" height="51" viewBox="0 0 51 51" xmlns="http://www.w3.org/2000/svg">
  <defs>
    <clipPath id="a">
      <path d="M1440 0v3534H0V0h1440Z"/>
    </clipPath>
    <clipPath id="b">
      <path d="M25.5 0C39.583 0 51 11.417 51 25.5S39.583 51 25.5 51 0 39.583 0 25.5 11.417 0 25.5 0Z"/>
    </clipPath>
    <clipPath id="c">
      <path d="M1.311 0a4.95 4.95 0 0 1 3.885 8.012c4.34 2.46 4.955 6.842 4.955 10.844l-.009.794H7.098v-.385l-.013-.408a13.65 13.65 0 0 0-.052-.798C6.593 13.06 4.075 9.745 0 8.692A5.19 5.19 0 0 0 .025.194 4.31 4.31 0 0 1 1.31 0Z"/>
    </clipPath>
    <clipPath id="d">
      <path d="M8.84 0c.473-.001.944.073 1.394.219a5.19 5.19 0 0 0 .062 8.476c-4.568 1.2-6.62 5.214-7.03 9.364-.04.403-.071.806-.071 1.206l-.01.385H0v-1.062c.03-3.942.712-8.178 4.956-10.585A4.95 4.95 0 0 1 8.84 0Z"/>
    </clipPath>
    <clipPath id="e">
      <path d="M2.408.297a3.9 3.9 0 1 1 2.984 7.206A3.9 3.9 0 0 1 2.408.297Z"/>
    </clipPath>
    <clipPath id="f">
      <path d="M8.782 0c7.928 0 8.784 7.024 8.784 10.047h-3.309V7.67a.656.656 0 1 0-1.308 0v2.377H4.617V7.67a.656.656 0 1 0-1.308 0v2.377H0C0 7.677.634-.013 8.782 0Z"/>
    </clipPath>
  </defs>
  <g clip-path="url(#a)" transform="translate(-170 -1545)">
    <g clip-path="url(#b)" transform="translate(170 1545)">
      <path fill="#FFF" d="M0 0h51v51H0V0z"/>
    </g>
    <g clip-path="url(#c)" transform="translate(199.261 1560)">
      <path fill="#84BD00" d="M0 0h10.151v19.65H0V0z"/>
    </g>
    <g clip-path="url(#d)" transform="translate(183 1560)">
      <path fill="#84BD00" d="M0 0h10.296v19.65H0V0z"/>
    </g>
    <g clip-path="url(#e)" transform="translate(192.379 1560.532)">
      <path fill="#84BD00" d="M0 0h7.8v7.8H0V0z"/>
    </g>
    <g clip-path="url(#f)" transform="translate(187.494 1569.653)">
      <path fill="#84BD00" d="M0 0h17.566v10.047H0V0z"/>
    </g>
  </g>
</svg>
