<svg width="51" height="51" viewBox="0 0 51 51" xmlns="http://www.w3.org/2000/svg">
  <defs>
    <clipPath id="a">
      <path d="M1440 0v3534H0V0h1440Z"/>
    </clipPath>
    <clipPath id="b">
      <path d="M25.5 0C39.583 0 51 11.417 51 25.5S39.583 51 25.5 51 0 39.583 0 25.5 11.417 0 25.5 0Z"/>
    </clipPath>
    <clipPath id="c">
      <path d="M4.73 2.883v.987c-.023.43.182.837.53 1.059.35.222.785.222 1.134 0 .31-.197.506-.541.53-.917l.001-1.13h10.15l.001 1.13c.024.376.22.72.53.917.349.222.785.222 1.134 0a1.18 1.18 0 0 0 .53-1.059v-.987h.938c2.093 0 3.79 1.793 3.792 4.006v11.905c0 1.063-.4 2.082-1.11 2.834a3.688 3.688 0 0 1-2.682 1.172H3.789C1.696 22.8 0 21.006 0 18.794V6.889c0-2.212 1.696-4.006 3.79-4.006h.94Zm4.31 5.266a3.625 3.625 0 0 0-1.593.337 2.848 2.848 0 0 0-1.141.95 2.57 2.57 0 0 0-.44 1.422H7.46c.003-.383.184-.741.485-.956.317-.24.7-.364 1.09-.354.374-.018.741.115 1.026.374.258.25.398.607.382.977a1.26 1.26 0 0 1-.44 1.01 1.7 1.7 0 0 1-.998.388h-.958v1.348h.803c.48-.03.957.117 1.348.414.318.255.497.658.481 1.079.013.404-.16.79-.465 1.034a1.8 1.8 0 0 1-1.04.397h-.337a1.879 1.879 0 0 1-.981-.336 1.199 1.199 0 0 1-.504-.937h-1.67c.008.516.167 1.016.456 1.432.305.427.71.762 1.176.97.54.236 1.12.351 1.705.338a3.95 3.95 0 0 0 1.73-.364c.477-.219.89-.568 1.195-1.011.287-.417.438-.92.43-1.436a2.226 2.226 0 0 0-.51-1.533 2.317 2.317 0 0 0-1.469-.751v-.074a2.097 2.097 0 0 0 1.202-.698 2.06 2.06 0 0 0 .45-1.348 2.519 2.519 0 0 0-.367-1.347 2.67 2.67 0 0 0-1.046-.967 3.315 3.315 0 0 0-1.593-.358Zm8.35.122h-1.594a1.1 1.1 0 0 1-.156.41 2.151 2.151 0 0 1-.402.51 2.269 2.269 0 0 1-.637.434c-.265.12-.55.18-.838.175v1.422c.43.017.86-.067 1.256-.246a1.53 1.53 0 0 0 .637-.468h.076v7.38h1.651l.007-9.617ZM6.394.166c.31.197.506.541.53.917l.001 1.8H4.729V1.225c-.022-.43.183-.837.531-1.059a1.049 1.049 0 0 1 1.134 0Zm12.346 0c.348.222.553.63.53 1.059v1.658h-2.195l.001-1.8c.024-.376.22-.72.53-.917a1.049 1.049 0 0 1 1.134 0Z"/>
    </clipPath>
  </defs>
  <g clip-path="url(#a)" transform="translate(-570 -1545)">
    <g clip-path="url(#b)" transform="translate(570 1545)">
      <path fill="#FFF" d="M0 0h51v51H0V0z"/>
    </g>
    <g clip-path="url(#c)" transform="translate(584 1558)">
      <path fill="#84BD00" d="M0 0h24v22.8H0V0z"/>
    </g>
  </g>
</svg>
