<svg width="51" height="51" viewBox="0 0 51 51" xmlns="http://www.w3.org/2000/svg">
  <defs>
    <clipPath id="a">
      <path d="M1440 0v3534H0V0h1440Z"/>
    </clipPath>
    <clipPath id="b">
      <path d="M25.5 0C39.583 0 51 11.417 51 25.5S39.583 51 25.5 51 0 39.583 0 25.5 11.417 0 25.5 0Z"/>
    </clipPath>
    <clipPath id="c">
      <path d="M9.6 0a.884.884 0 0 1 .883.879v1.516a7.961 7.961 0 0 1 5.034 2.589 7.902 7.902 0 0 1 2.025 5.27v4.296c.001.824.269 1.625.764 2.285l.47.625c.383.507.516 1.16.36 1.776a3.215 3.215 0 0 1-1.146 1.76 3.238 3.238 0 0 1-1.993.682h-2.603a3.787 3.787 0 0 1-1.97 3.058 3.817 3.817 0 0 1-3.648 0 3.787 3.787 0 0 1-1.97-3.058H3.201a3.236 3.236 0 0 1-1.992-.681 3.214 3.214 0 0 1-1.146-1.76 2.094 2.094 0 0 1 .36-1.777l.47-.625c.495-.66.762-1.461.764-2.285v-4.297a7.902 7.902 0 0 1 2.026-5.27 7.961 7.961 0 0 1 5.033-2.588V.88A.877.877 0 0 1 9.6 0Zm2.029 21.678H7.57c.07.487.314.932.686 1.255.373.323.85.501 1.344.503l.184-.01a2.06 2.06 0 0 0 1.159-.493c.372-.323.616-.768.686-1.255Z"/>
    </clipPath>
  </defs>
  <g clip-path="url(#a)" transform="translate(-970 -1545)">
    <g clip-path="url(#b)" transform="translate(970 1545)">
      <path fill="#FFF" d="M0 0h51v51H0V0z"/>
    </g>
    <g clip-path="url(#c)" transform="translate(986 1555.616)">
      <path fill="#84BD00" d="M0 0h19.2v25.2H0V0z"/>
    </g>
  </g>
</svg>
