<svg width="51" height="51" viewBox="0 0 51 51" xmlns="http://www.w3.org/2000/svg">
  <defs>
    <clipPath id="a">
      <path d="M1440 0v3534H0V0h1440Z"/>
    </clipPath>
    <clipPath id="b">
      <path d="M25.5 0C39.583 0 51 11.417 51 25.5S39.583 51 25.5 51 0 39.583 0 25.5 11.417 0 25.5 0Z"/>
    </clipPath>
    <clipPath id="c">
      <path d="m11.667.002.523.02a.43.43 0 0 1 .203.052 1.989 1.989 0 0 1 1.109 1.511.515.515 0 0 1 .031.11.994.994 0 0 0 .238.481c.122.138.281.242.46.303.228.056.452.128.668.216.13.053.27.082.411.084a.988.988 0 0 0 .64-.216.163.163 0 0 1 .085-.054 2.235 2.235 0 0 1 1.866-.477l.078.03c.048.019.089.037.127.054.426.306.834.633 1.222.98a.496.496 0 0 1 .117.199 2.057 2.057 0 0 1-.174 1.846.13.13 0 0 1-.057.084.996.996 0 0 0 .032 1.036c0 .013.01.023.023.026.123.199.23.363.351.561 0 .009.003.017.009.023a.03.03 0 0 0 .023.008c.09.156.22.288.38.381.16.093.344.145.532.15h.117a2.122 2.122 0 0 1 1.717.753.853.853 0 0 1 .116.199c.14.515.236 1.04.285 1.57a.552.552 0 0 1-.032.215 2.086 2.086 0 0 1-1.33 1.257.14.14 0 0 1-.125.038c-.059 0-.558.16-.67.8v.023a4.605 4.605 0 0 1-.116.648v.032a.924.924 0 0 0 .35.863c.028.03.058.059.085.085.505.394.803.978.814 1.597a.476.476 0 0 1-.057.216 7.95 7.95 0 0 1-.873 1.43l-.178.167a2.224 2.224 0 0 1-1.457.214 2.512 2.512 0 0 1-.383-.101.704.704 0 0 0-.117-.03 1.015 1.015 0 0 0-.351-.06 1.057 1.057 0 0 0-.698.252h-.032a4.103 4.103 0 0 1-.524.431.034.034 0 0 0-.046 0 .03.03 0 0 0 0 .044 1.007 1.007 0 0 0-.336.408.95.95 0 0 0-.074.513.34.34 0 0 1 .032.169c.027.13.04.26.04.393a1.86 1.86 0 0 1-.476 1.256.538.538 0 0 1-.205.138 16.31 16.31 0 0 1-1.66.59c.036.058-.016.058-.048.058h-.117a2.11 2.11 0 0 1-1.455-1.036.584.584 0 0 0-.057-.085 1.02 1.02 0 0 0-.394-.373 1.092 1.092 0 0 0-.54-.127h-.73a1.004 1.004 0 0 0-.549.115.933.933 0 0 0-.387.385.572.572 0 0 1-.057.085c-.296.534-.83.915-1.454 1.036a.4.4 0 0 1-.263 0 8.831 8.831 0 0 1-1.665-.585.574.574 0 0 1-.205-.138 2.015 2.015 0 0 1-.41-1.706.19.19 0 0 1 .032-.11 1.001 1.001 0 0 0-.379-.948l-.032-.03-.524-.432a1.363 1.363 0 0 0-.352-.19 1.122 1.122 0 0 0-.374-.062 1.085 1.085 0 0 0-.35.054.14.14 0 0 1-.117.03 2.216 2.216 0 0 1-1.825-.11.267.267 0 0 1-.177-.168 11.994 11.994 0 0 1-.874-1.43.692.692 0 0 1-.057-.215 2.033 2.033 0 0 1 .814-1.598.162.162 0 0 1 .085-.054c.285-.248.417-.617.35-.978v-.03a4.508 4.508 0 0 1-.115-.648v-.03a.925.925 0 0 0-.216-.482 1.007 1.007 0 0 0-.569-.332A2.107 2.107 0 0 1 .033 10.12.553.553 0 0 1 0 9.903a10.33 10.33 0 0 1 .296-1.567.498.498 0 0 1 .117-.199A2.175 2.175 0 0 1 2.13 7.38h.118c.19.002.376-.047.537-.14a.976.976 0 0 0 .376-.39.027.027 0 0 1 .008-.023.03.03 0 0 1 .023-.008 4.36 4.36 0 0 1 .333-.561c0-.008.003-.016.009-.022a.03.03 0 0 1 .023-.008A1 1 0 0 0 3.59 5.19a.557.557 0 0 0-.057-.084A1.987 1.987 0 0 1 3.36 3.26a.768.768 0 0 1 .116-.198 8.05 8.05 0 0 1 1.225-.978A.307.307 0 0 1 4.906 2a2.218 2.218 0 0 1 1.866.477c.027.028.057.028.084.058.182.138.408.214.64.216.14-.006.277-.024.411-.054.233-.078.468-.162.668-.216.182-.057.343-.16.466-.299a.96.96 0 0 0 .232-.485.094.094 0 0 1 .032-.084A2.06 2.06 0 0 1 10.414.076a.618.618 0 0 1 .205-.054c.523-.03 1.048-.03 1.571 0Zm-.324 6.486a4.817 4.817 0 0 0-3.307 1.316 4.313 4.313 0 0 0-1.353 3.145 4.32 4.32 0 0 0 1.396 3.128 4.823 4.823 0 0 0 3.325 1.275 4.787 4.787 0 0 0 3.299-1.307 4.285 4.285 0 0 0 1.344-3.138 4.317 4.317 0 0 0-1.384-3.133 4.822 4.822 0 0 0-3.32-1.286Z"/>
    </clipPath>
  </defs>
  <g clip-path="url(#a)" transform="translate(-170 -1741)">
    <g clip-path="url(#b)" transform="translate(170 1741)">
      <path fill="#FFF" d="M0 0h51v51H0V0z"/>
    </g>
    <g clip-path="url(#c)" transform="translate(185 1756.6)">
      <path fill="#84BD00" d="M0 0h22.8v21.6H0V0z"/>
    </g>
  </g>
</svg>
