<svg width="51" height="51" viewBox="0 0 51 51" xmlns="http://www.w3.org/2000/svg">
  <defs>
    <clipPath id="a">
      <path d="M1440 0v3534H0V0h1440Z"/>
    </clipPath>
    <clipPath id="b">
      <path d="M25.5 0C39.583 0 51 11.417 51 25.5S39.583 51 25.5 51 0 39.583 0 25.5 11.417 0 25.5 0Z"/>
    </clipPath>
    <clipPath id="c">
      <path d="m7.3 14.36 3.667 3.289a3.129 3.129 0 0 0 1.985.753 3.02 3.02 0 0 0 1.614-.445l6.627-3.906v6.647c0 .753-.74 1.301-1.48 1.301H1.143a1.223 1.223 0 0 1-1.142-1.175v-2.661l5.214-3.906a1.592 1.592 0 0 1 2.086.103ZM5.299 0l.153.006 18.332 2.158c.362.028.693.216.908.514.228.276.338.634.303.993l-1.581 13.91c.002.36-.159.701-.438.924-.134.137-.437.206-.437.274V6.686c-.053-1.56-1.292-2.808-2.825-2.843H3.635l.302-2.673c.066-.346.244-.66.505-.89.21-.149.453-.24.704-.27L5.298 0Zm14.415 5.213c.79.033 1.429.669 1.48 1.473v5.755l-7.333 4.351a1.69 1.69 0 0 1-1.985-.171l-3.7-3.289a2.919 2.919 0 0 0-3.733-.171L.002 16.45V6.686c0-.754.505-1.473 1.245-1.473h18.466Zm-7.03 2.158c-1.56 0-2.826 1.288-2.826 2.878s1.265 2.878 2.826 2.878c1.56 0 2.825-1.289 2.825-2.878 0-1.59-1.265-2.878-2.825-2.878Zm0 1.37c.817 0 1.48.675 1.48 1.508 0 .832-.663 1.507-1.48 1.507-.818 0-1.48-.675-1.48-1.507 0-.833.662-1.508 1.48-1.508Z"/>
    </clipPath>
  </defs>
  <g clip-path="url(#a)" transform="translate(-970 -1741)">
    <g clip-path="url(#b)" transform="translate(970 1741)">
      <path fill="#FFF" d="M0 0h51v51H0V0z"/>
    </g>
    <g clip-path="url(#c)" transform="translate(984 1756)">
      <path fill="#84BD00" d="M.001 0H25v22H.001V0z"/>
    </g>
  </g>
</svg>
