<svg xmlns="http://www.w3.org/2000/svg" width="160" height="160" viewBox="0 0 160 160">
    <g fill="none">
        <circle cx="80" cy="80" r="80" fill="#2F3C54"/>
        <path fill="#84BD01" stroke="#84BD01" d="M34.688 96v-2.184h-13V93.4C21.844 82.688 35 79.048 35 68.544c0-5.304-2.184-9.256-7.852-9.256-5.616 0-7.852 4.108-7.852 9.36v2.34h2.288v-2.496c0-3.9 1.456-7.02 5.46-7.02 4.16 0 5.564 2.964 5.564 7.176 0 9.984-13.312 12.74-13.312 25.584V96h15.392zm11.96.312c5.564 0 7.852-3.9 7.852-9.204V84.3c0-3.588-1.56-6.396-4.836-7.384 3.12-1.092 4.836-3.952 4.836-7.54v-.884c0-5.304-2.288-9.204-7.852-9.204s-7.852 3.9-7.852 9.204v1.3h2.288v-1.456c0-3.952 1.508-6.864 5.512-6.864s5.512 2.912 5.512 7.072v1.3c0 3.484-2.028 5.876-5.304 6.084h-2.548v2.184H46.7c3.536.156 5.408 2.34 5.408 6.136v2.808c0 4.16-1.508 7.072-5.512 7.072s-5.512-2.964-5.512-6.916v-2.184h-2.288v2.08c0 5.304 2.288 9.204 7.852 9.204zm19.76 0c5.564 0 8.008-3.9 8.008-9.204V68.492c0-5.356-2.444-9.204-8.008-9.204-5.564 0-8.008 3.848-8.008 9.204v18.616c0 5.304 2.444 9.204 8.008 9.204zm0-2.184c-4.004 0-5.616-2.912-5.616-6.916V68.336c0-3.952 1.612-6.864 5.616-6.864s5.616 2.912 5.616 6.864v18.876c0 4.004-1.612 6.916-5.616 6.916zm27.872 2.184c5.564 0 8.008-3.9 8.008-9.204V68.492c0-5.356-2.444-9.204-8.008-9.204-5.564 0-8.008 3.848-8.008 9.204v18.616c0 5.304 2.444 9.204 8.008 9.204zm0-2.184c-4.004 0-5.616-2.912-5.616-6.916V68.336c0-3.952 1.612-6.864 5.616-6.864s5.616 2.912 5.616 6.864v18.876c0 4.004-1.612 6.916-5.616 6.916zm19.812 2.184c5.564 0 8.008-3.9 8.008-9.204V68.492c0-5.356-2.444-9.204-8.008-9.204-5.564 0-8.008 3.848-8.008 9.204v18.616c0 5.304 2.444 9.204 8.008 9.204zm0-2.184c-4.004 0-5.616-2.912-5.616-6.916V68.336c0-3.952 1.612-6.864 5.616-6.864s5.616 2.912 5.616 6.864v18.876c0 4.004-1.612 6.916-5.616 6.916zm19.812 2.184c5.564 0 8.008-3.9 8.008-9.204V68.492c0-5.356-2.444-9.204-8.008-9.204-5.564 0-8.008 3.848-8.008 9.204v18.616c0 5.304 2.444 9.204 8.008 9.204zm0-2.184c-4.004 0-5.616-2.912-5.616-6.916V68.336c0-3.952 1.612-6.864 5.616-6.864s5.616 2.912 5.616 6.864v18.876c0 4.004-1.612 6.916-5.616 6.916z"/>
    </g>
</svg>
