<svg xmlns="http://www.w3.org/2000/svg" width="160" height="160" viewBox="0 0 160 160">
    <g fill="none">
        <circle cx="80" cy="80" r="80" fill="#2F3C54"/>
        <path fill="#84BD01" stroke="#84BD01" d="M48.988 96v-2.184h-13V93.4C36.144 82.688 49.3 79.048 49.3 68.544c0-5.304-2.184-9.256-7.852-9.256-5.616 0-7.852 4.108-7.852 9.36v2.34h2.288v-2.496c0-3.9 1.456-7.02 5.46-7.02 4.16 0 5.564 2.964 5.564 7.176 0 9.984-13.312 12.74-13.312 25.584V96h15.392zm5.512 3.952l1.508-4.16v-4.368H53.72V96h.78l-1.04 3.952h1.04zm13.416-3.64c5.564 0 7.904-3.952 7.904-9.204v-6.24c0-5.044-2.028-8.892-7.072-8.892-2.704 0-4.628.832-5.876 2.808l.676-13H75.04v-2.236H61.364l-.936 19.448h2.236v-.624c.728-2.704 2.548-4.16 5.2-4.16 4.004 0 5.564 2.964 5.564 6.864v6.136c0 3.9-1.56 6.864-5.564 6.864-3.952 0-5.512-2.964-5.512-6.864v-2.08h-2.288v1.976c0 5.252 2.34 9.204 7.852 9.204zm22.1-.312V63.76l7.696 32.188h2.392l7.592-32.292V96h2.288V59.6h-3.432L98.96 91.788 91.316 59.6h-3.432V96h2.132zm37.96 0v-2.184h-11.44V59.6h-2.392V96h13.832z"/>
    </g>
</svg>
