<svg xmlns="http://www.w3.org/2000/svg" width="160" height="160" viewBox="0 0 160 160">
    <g fill="none">
        <circle cx="80" cy="80" r="80" fill="#2F3C54"/>
        <path fill="#84BD01" stroke="#84BD01" d="M50.652 96V59.548H48.78c-.936 2.704-2.6 4.836-6.188 5.096v2.08c2.444-.208 4.368-1.352 5.668-3.068V96h2.392zm13.156.312c5.564 0 8.008-3.9 8.008-9.204V68.492c0-5.356-2.444-9.204-8.008-9.204-5.564 0-8.008 3.848-8.008 9.204v18.616c0 5.304 2.444 9.204 8.008 9.204zm0-2.184c-4.004 0-5.616-2.912-5.616-6.916V68.336c0-3.952 1.612-6.864 5.616-6.864s5.616 2.912 5.616 6.864v18.876c0 4.004-1.612 6.916-5.616 6.916zm19.812 2.184c5.564 0 8.008-3.9 8.008-9.204V68.492c0-5.356-2.444-9.204-8.008-9.204-5.564 0-8.008 3.848-8.008 9.204v18.616c0 5.304 2.444 9.204 8.008 9.204zm0-2.184c-4.004 0-5.616-2.912-5.616-6.916V68.336c0-3.952 1.612-6.864 5.616-6.864s5.616 2.912 5.616 6.864v18.876c0 4.004-1.612 6.916-5.616 6.916zm28.912-7.852v-7.592h7.436v-1.768h-7.436v-7.488h-1.768v7.488h-7.384v1.768h7.384v7.592h1.768z"/>
    </g>
</svg>
