<svg xmlns="http://www.w3.org/2000/svg" xmlns:xlink="http://www.w3.org/1999/xlink" width="554" height="269" viewBox="0 0 554 269">
    <defs>
        <path id="prefix__a" d="M0 0L570 0 570 285 0 285z"/>
    </defs>
    <g fill="none" fill-rule="evenodd">
        <mask id="prefix__b" fill="#fff">
            <use xlink:href="#prefix__a"/>
        </mask>
        <circle cx="1.5" cy="1.5" r="1.5" fill="#D8D8D8" mask="url(#prefix__b)"/>
        <circle cx="1.5" cy="20.5" r="1.5" fill="#D8D8D8" mask="url(#prefix__b)"/>
        <circle cx="1.5" cy="39.5" r="1.5" fill="#D8D8D8" mask="url(#prefix__b)"/>
        <circle cx="1.5" cy="58.5" r="1.5" fill="#D8D8D8" mask="url(#prefix__b)"/>
        <circle cx="1.5" cy="77.5" r="1.5" fill="#D8D8D8" mask="url(#prefix__b)"/>
        <circle cx="1.5" cy="96.5" r="1.5" fill="#D8D8D8" mask="url(#prefix__b)"/>
        <circle cx="1.5" cy="115.5" r="1.5" fill="#D8D8D8" mask="url(#prefix__b)"/>
        <circle cx="1.5" cy="134.5" r="1.5" fill="#D8D8D8" mask="url(#prefix__b)"/>
        <circle cx="1.5" cy="153.5" r="1.5" fill="#D8D8D8" mask="url(#prefix__b)"/>
        <circle cx="1.5" cy="172.5" r="1.5" fill="#D8D8D8" mask="url(#prefix__b)"/>
        <circle cx="1.5" cy="191.5" r="1.5" fill="#D8D8D8" mask="url(#prefix__b)"/>
        <circle cx="1.5" cy="210.5" r="1.5" fill="#D8D8D8" mask="url(#prefix__b)"/>
        <circle cx="1.5" cy="229.5" r="1.5" fill="#D8D8D8" mask="url(#prefix__b)"/>
        <circle cx="1.5" cy="248.5" r="1.5" fill="#D8D8D8" mask="url(#prefix__b)"/>
        <circle cx="1.5" cy="267.5" r="1.5" fill="#D8D8D8" mask="url(#prefix__b)"/>
        <circle cx="20.5" cy="1.5" r="1.5" fill="#D8D8D8" mask="url(#prefix__b)"/>
        <circle cx="20.5" cy="20.5" r="1.5" fill="#D8D8D8" mask="url(#prefix__b)"/>
        <circle cx="20.5" cy="39.5" r="1.5" fill="#D8D8D8" mask="url(#prefix__b)"/>
        <circle cx="20.5" cy="58.5" r="1.5" fill="#D8D8D8" mask="url(#prefix__b)"/>
        <circle cx="20.5" cy="77.5" r="1.5" fill="#D8D8D8" mask="url(#prefix__b)"/>
        <circle cx="20.5" cy="96.5" r="1.5" fill="#D8D8D8" mask="url(#prefix__b)"/>
        <circle cx="20.5" cy="115.5" r="1.5" fill="#D8D8D8" mask="url(#prefix__b)"/>
        <circle cx="20.5" cy="134.5" r="1.5" fill="#D8D8D8" mask="url(#prefix__b)"/>
        <circle cx="20.5" cy="153.5" r="1.5" fill="#D8D8D8" mask="url(#prefix__b)"/>
        <circle cx="20.5" cy="172.5" r="1.5" fill="#D8D8D8" mask="url(#prefix__b)"/>
        <circle cx="20.5" cy="191.5" r="1.5" fill="#D8D8D8" mask="url(#prefix__b)"/>
        <circle cx="20.5" cy="210.5" r="1.5" fill="#D8D8D8" mask="url(#prefix__b)"/>
        <circle cx="20.5" cy="229.5" r="1.5" fill="#D8D8D8" mask="url(#prefix__b)"/>
        <circle cx="20.5" cy="248.5" r="1.5" fill="#D8D8D8" mask="url(#prefix__b)"/>
        <circle cx="20.5" cy="267.5" r="1.5" fill="#D8D8D8" mask="url(#prefix__b)"/>
        <circle cx="39.5" cy="1.5" r="1.5" fill="#D8D8D8" mask="url(#prefix__b)"/>
        <circle cx="39.5" cy="20.5" r="1.5" fill="#D8D8D8" mask="url(#prefix__b)"/>
        <circle cx="39.5" cy="39.5" r="1.5" fill="#D8D8D8" mask="url(#prefix__b)"/>
        <circle cx="39.5" cy="58.5" r="1.5" fill="#D8D8D8" mask="url(#prefix__b)"/>
        <circle cx="39.5" cy="77.5" r="1.5" fill="#D8D8D8" mask="url(#prefix__b)"/>
        <circle cx="39.5" cy="96.5" r="1.5" fill="#D8D8D8" mask="url(#prefix__b)"/>
        <circle cx="39.5" cy="115.5" r="1.5" fill="#D8D8D8" mask="url(#prefix__b)"/>
        <circle cx="39.5" cy="134.5" r="1.5" fill="#D8D8D8" mask="url(#prefix__b)"/>
        <circle cx="39.5" cy="153.5" r="1.5" fill="#D8D8D8" mask="url(#prefix__b)"/>
        <circle cx="39.5" cy="172.5" r="1.5" fill="#D8D8D8" mask="url(#prefix__b)"/>
        <circle cx="39.5" cy="191.5" r="1.5" fill="#D8D8D8" mask="url(#prefix__b)"/>
        <circle cx="39.5" cy="210.5" r="1.5" fill="#D8D8D8" mask="url(#prefix__b)"/>
        <circle cx="39.5" cy="229.5" r="1.5" fill="#D8D8D8" mask="url(#prefix__b)"/>
        <circle cx="39.5" cy="248.5" r="1.5" fill="#D8D8D8" mask="url(#prefix__b)"/>
        <circle cx="39.5" cy="267.5" r="1.5" fill="#D8D8D8" mask="url(#prefix__b)"/>
        <circle cx="58.5" cy="1.5" r="1.5" fill="#D8D8D8" mask="url(#prefix__b)"/>
        <circle cx="58.5" cy="20.5" r="1.5" fill="#D8D8D8" mask="url(#prefix__b)"/>
        <circle cx="58.5" cy="39.5" r="1.5" fill="#D8D8D8" mask="url(#prefix__b)"/>
        <circle cx="58.5" cy="58.5" r="1.5" fill="#D8D8D8" mask="url(#prefix__b)"/>
        <circle cx="58.5" cy="77.5" r="1.5" fill="#D8D8D8" mask="url(#prefix__b)"/>
        <circle cx="58.5" cy="96.5" r="1.5" fill="#D8D8D8" mask="url(#prefix__b)"/>
        <circle cx="58.5" cy="115.5" r="1.5" fill="#D8D8D8" mask="url(#prefix__b)"/>
        <circle cx="58.5" cy="134.5" r="1.5" fill="#D8D8D8" mask="url(#prefix__b)"/>
        <circle cx="58.5" cy="153.5" r="1.5" fill="#D8D8D8" mask="url(#prefix__b)"/>
        <circle cx="58.5" cy="172.5" r="1.5" fill="#D8D8D8" mask="url(#prefix__b)"/>
        <circle cx="58.5" cy="191.5" r="1.5" fill="#D8D8D8" mask="url(#prefix__b)"/>
        <circle cx="58.5" cy="210.5" r="1.5" fill="#D8D8D8" mask="url(#prefix__b)"/>
        <circle cx="58.5" cy="229.5" r="1.5" fill="#D8D8D8" mask="url(#prefix__b)"/>
        <circle cx="58.5" cy="248.5" r="1.5" fill="#D8D8D8" mask="url(#prefix__b)"/>
        <circle cx="58.5" cy="267.5" r="1.5" fill="#D8D8D8" mask="url(#prefix__b)"/>
        <circle cx="77.5" cy="1.5" r="1.5" fill="#D8D8D8" mask="url(#prefix__b)"/>
        <circle cx="77.5" cy="20.5" r="1.5" fill="#D8D8D8" mask="url(#prefix__b)"/>
        <circle cx="77.5" cy="39.5" r="1.5" fill="#D8D8D8" mask="url(#prefix__b)"/>
        <circle cx="77.5" cy="58.5" r="1.5" fill="#D8D8D8" mask="url(#prefix__b)"/>
        <circle cx="77.5" cy="77.5" r="1.5" fill="#D8D8D8" mask="url(#prefix__b)"/>
        <circle cx="77.5" cy="96.5" r="1.5" fill="#D8D8D8" mask="url(#prefix__b)"/>
        <circle cx="77.5" cy="115.5" r="1.5" fill="#D8D8D8" mask="url(#prefix__b)"/>
        <circle cx="77.5" cy="134.5" r="1.5" fill="#D8D8D8" mask="url(#prefix__b)"/>
        <circle cx="77.5" cy="153.5" r="1.5" fill="#D8D8D8" mask="url(#prefix__b)"/>
        <circle cx="77.5" cy="172.5" r="1.5" fill="#D8D8D8" mask="url(#prefix__b)"/>
        <circle cx="77.5" cy="191.5" r="1.5" fill="#D8D8D8" mask="url(#prefix__b)"/>
        <circle cx="77.5" cy="210.5" r="1.5" fill="#D8D8D8" mask="url(#prefix__b)"/>
        <circle cx="77.5" cy="229.5" r="1.5" fill="#D8D8D8" mask="url(#prefix__b)"/>
        <circle cx="77.5" cy="248.5" r="1.5" fill="#D8D8D8" mask="url(#prefix__b)"/>
        <circle cx="77.5" cy="267.5" r="1.5" fill="#D8D8D8" mask="url(#prefix__b)"/>
        <circle cx="96.5" cy="1.5" r="1.5" fill="#D8D8D8" mask="url(#prefix__b)"/>
        <circle cx="96.5" cy="20.5" r="1.5" fill="#D8D8D8" mask="url(#prefix__b)"/>
        <circle cx="96.5" cy="39.5" r="1.5" fill="#D8D8D8" mask="url(#prefix__b)"/>
        <circle cx="96.5" cy="58.5" r="1.5" fill="#D8D8D8" mask="url(#prefix__b)"/>
        <circle cx="96.5" cy="77.5" r="1.5" fill="#D8D8D8" mask="url(#prefix__b)"/>
        <circle cx="96.5" cy="96.5" r="1.5" fill="#D8D8D8" mask="url(#prefix__b)"/>
        <circle cx="96.5" cy="115.5" r="1.5" fill="#D8D8D8" mask="url(#prefix__b)"/>
        <circle cx="96.5" cy="134.5" r="1.5" fill="#D8D8D8" mask="url(#prefix__b)"/>
        <circle cx="96.5" cy="153.5" r="1.5" fill="#D8D8D8" mask="url(#prefix__b)"/>
        <circle cx="96.5" cy="172.5" r="1.5" fill="#D8D8D8" mask="url(#prefix__b)"/>
        <circle cx="96.5" cy="191.5" r="1.5" fill="#D8D8D8" mask="url(#prefix__b)"/>
        <circle cx="96.5" cy="210.5" r="1.5" fill="#D8D8D8" mask="url(#prefix__b)"/>
        <circle cx="96.5" cy="229.5" r="1.5" fill="#D8D8D8" mask="url(#prefix__b)"/>
        <circle cx="96.5" cy="248.5" r="1.5" fill="#D8D8D8" mask="url(#prefix__b)"/>
        <circle cx="96.5" cy="267.5" r="1.5" fill="#D8D8D8" mask="url(#prefix__b)"/>
        <circle cx="115.5" cy="1.5" r="1.5" fill="#D8D8D8" mask="url(#prefix__b)"/>
        <circle cx="115.5" cy="20.5" r="1.5" fill="#D8D8D8" mask="url(#prefix__b)"/>
        <circle cx="115.5" cy="39.5" r="1.5" fill="#D8D8D8" mask="url(#prefix__b)"/>
        <circle cx="115.5" cy="58.5" r="1.5" fill="#D8D8D8" mask="url(#prefix__b)"/>
        <circle cx="115.5" cy="77.5" r="1.5" fill="#D8D8D8" mask="url(#prefix__b)"/>
        <circle cx="115.5" cy="96.5" r="1.5" fill="#D8D8D8" mask="url(#prefix__b)"/>
        <circle cx="115.5" cy="115.5" r="1.5" fill="#D8D8D8" mask="url(#prefix__b)"/>
        <circle cx="115.5" cy="134.5" r="1.5" fill="#D8D8D8" mask="url(#prefix__b)"/>
        <circle cx="115.5" cy="153.5" r="1.5" fill="#D8D8D8" mask="url(#prefix__b)"/>
        <circle cx="115.5" cy="172.5" r="1.5" fill="#D8D8D8" mask="url(#prefix__b)"/>
        <circle cx="115.5" cy="191.5" r="1.5" fill="#D8D8D8" mask="url(#prefix__b)"/>
        <circle cx="115.5" cy="210.5" r="1.5" fill="#D8D8D8" mask="url(#prefix__b)"/>
        <circle cx="115.5" cy="229.5" r="1.5" fill="#D8D8D8" mask="url(#prefix__b)"/>
        <circle cx="115.5" cy="248.5" r="1.5" fill="#D8D8D8" mask="url(#prefix__b)"/>
        <circle cx="115.5" cy="267.5" r="1.5" fill="#D8D8D8" mask="url(#prefix__b)"/>
        <circle cx="134.5" cy="1.5" r="1.5" fill="#D8D8D8" mask="url(#prefix__b)"/>
        <circle cx="134.5" cy="20.5" r="1.5" fill="#D8D8D8" mask="url(#prefix__b)"/>
        <circle cx="134.5" cy="39.5" r="1.5" fill="#D8D8D8" mask="url(#prefix__b)"/>
        <circle cx="134.5" cy="58.5" r="1.5" fill="#D8D8D8" mask="url(#prefix__b)"/>
        <circle cx="134.5" cy="77.5" r="1.5" fill="#D8D8D8" mask="url(#prefix__b)"/>
        <circle cx="134.5" cy="96.5" r="1.5" fill="#D8D8D8" mask="url(#prefix__b)"/>
        <circle cx="134.5" cy="115.5" r="1.5" fill="#D8D8D8" mask="url(#prefix__b)"/>
        <circle cx="134.5" cy="134.5" r="1.5" fill="#D8D8D8" mask="url(#prefix__b)"/>
        <circle cx="134.5" cy="153.5" r="1.5" fill="#D8D8D8" mask="url(#prefix__b)"/>
        <circle cx="134.5" cy="172.5" r="1.5" fill="#D8D8D8" mask="url(#prefix__b)"/>
        <circle cx="134.5" cy="191.5" r="1.5" fill="#D8D8D8" mask="url(#prefix__b)"/>
        <circle cx="134.5" cy="210.5" r="1.5" fill="#D8D8D8" mask="url(#prefix__b)"/>
        <circle cx="134.5" cy="229.5" r="1.5" fill="#D8D8D8" mask="url(#prefix__b)"/>
        <circle cx="134.5" cy="248.5" r="1.5" fill="#D8D8D8" mask="url(#prefix__b)"/>
        <circle cx="134.5" cy="267.5" r="1.5" fill="#D8D8D8" mask="url(#prefix__b)"/>
        <circle cx="153.5" cy="1.5" r="1.5" fill="#D8D8D8" mask="url(#prefix__b)"/>
        <circle cx="153.5" cy="20.5" r="1.5" fill="#D8D8D8" mask="url(#prefix__b)"/>
        <circle cx="153.5" cy="39.5" r="1.5" fill="#D8D8D8" mask="url(#prefix__b)"/>
        <circle cx="153.5" cy="58.5" r="1.5" fill="#D8D8D8" mask="url(#prefix__b)"/>
        <circle cx="153.5" cy="77.5" r="1.5" fill="#D8D8D8" mask="url(#prefix__b)"/>
        <circle cx="153.5" cy="96.5" r="1.5" fill="#D8D8D8" mask="url(#prefix__b)"/>
        <circle cx="153.5" cy="115.5" r="1.5" fill="#D8D8D8" mask="url(#prefix__b)"/>
        <circle cx="153.5" cy="134.5" r="1.5" fill="#D8D8D8" mask="url(#prefix__b)"/>
        <circle cx="153.5" cy="153.5" r="1.5" fill="#D8D8D8" mask="url(#prefix__b)"/>
        <circle cx="153.5" cy="172.5" r="1.5" fill="#D8D8D8" mask="url(#prefix__b)"/>
        <circle cx="153.5" cy="191.5" r="1.5" fill="#D8D8D8" mask="url(#prefix__b)"/>
        <circle cx="153.5" cy="210.5" r="1.5" fill="#D8D8D8" mask="url(#prefix__b)"/>
        <circle cx="153.5" cy="229.5" r="1.5" fill="#D8D8D8" mask="url(#prefix__b)"/>
        <circle cx="153.5" cy="248.5" r="1.5" fill="#D8D8D8" mask="url(#prefix__b)"/>
        <circle cx="153.5" cy="267.5" r="1.5" fill="#D8D8D8" mask="url(#prefix__b)"/>
        <circle cx="172.5" cy="1.5" r="1.5" fill="#D8D8D8" mask="url(#prefix__b)"/>
        <circle cx="172.5" cy="20.5" r="1.5" fill="#D8D8D8" mask="url(#prefix__b)"/>
        <circle cx="172.5" cy="39.5" r="1.5" fill="#D8D8D8" mask="url(#prefix__b)"/>
        <circle cx="172.5" cy="58.5" r="1.5" fill="#D8D8D8" mask="url(#prefix__b)"/>
        <circle cx="172.5" cy="77.5" r="1.5" fill="#D8D8D8" mask="url(#prefix__b)"/>
        <circle cx="172.5" cy="96.5" r="1.5" fill="#D8D8D8" mask="url(#prefix__b)"/>
        <circle cx="172.5" cy="115.5" r="1.5" fill="#D8D8D8" mask="url(#prefix__b)"/>
        <circle cx="172.5" cy="134.5" r="1.5" fill="#D8D8D8" mask="url(#prefix__b)"/>
        <circle cx="172.5" cy="153.5" r="1.5" fill="#D8D8D8" mask="url(#prefix__b)"/>
        <circle cx="172.5" cy="172.5" r="1.5" fill="#D8D8D8" mask="url(#prefix__b)"/>
        <circle cx="172.5" cy="191.5" r="1.5" fill="#D8D8D8" mask="url(#prefix__b)"/>
        <circle cx="172.5" cy="210.5" r="1.5" fill="#D8D8D8" mask="url(#prefix__b)"/>
        <circle cx="172.5" cy="229.5" r="1.5" fill="#D8D8D8" mask="url(#prefix__b)"/>
        <circle cx="172.5" cy="248.5" r="1.5" fill="#D8D8D8" mask="url(#prefix__b)"/>
        <circle cx="172.5" cy="267.5" r="1.5" fill="#D8D8D8" mask="url(#prefix__b)"/>
        <circle cx="191.5" cy="1.5" r="1.5" fill="#D8D8D8" mask="url(#prefix__b)"/>
        <circle cx="191.5" cy="20.5" r="1.5" fill="#D8D8D8" mask="url(#prefix__b)"/>
        <circle cx="191.5" cy="39.5" r="1.5" fill="#D8D8D8" mask="url(#prefix__b)"/>
        <circle cx="191.5" cy="58.5" r="1.5" fill="#D8D8D8" mask="url(#prefix__b)"/>
        <circle cx="191.5" cy="77.5" r="1.5" fill="#D8D8D8" mask="url(#prefix__b)"/>
        <circle cx="191.5" cy="96.5" r="1.5" fill="#D8D8D8" mask="url(#prefix__b)"/>
        <circle cx="191.5" cy="115.5" r="1.5" fill="#D8D8D8" mask="url(#prefix__b)"/>
        <circle cx="191.5" cy="134.5" r="1.5" fill="#D8D8D8" mask="url(#prefix__b)"/>
        <circle cx="191.5" cy="153.5" r="1.5" fill="#D8D8D8" mask="url(#prefix__b)"/>
        <circle cx="191.5" cy="172.5" r="1.5" fill="#D8D8D8" mask="url(#prefix__b)"/>
        <circle cx="191.5" cy="191.5" r="1.5" fill="#D8D8D8" mask="url(#prefix__b)"/>
        <circle cx="191.5" cy="210.5" r="1.5" fill="#D8D8D8" mask="url(#prefix__b)"/>
        <circle cx="191.5" cy="229.5" r="1.5" fill="#D8D8D8" mask="url(#prefix__b)"/>
        <circle cx="191.5" cy="248.5" r="1.5" fill="#D8D8D8" mask="url(#prefix__b)"/>
        <circle cx="191.5" cy="267.5" r="1.5" fill="#D8D8D8" mask="url(#prefix__b)"/>
        <circle cx="210.5" cy="1.5" r="1.5" fill="#D8D8D8" mask="url(#prefix__b)"/>
        <circle cx="210.5" cy="20.5" r="1.5" fill="#D8D8D8" mask="url(#prefix__b)"/>
        <circle cx="210.5" cy="39.5" r="1.5" fill="#D8D8D8" mask="url(#prefix__b)"/>
        <circle cx="210.5" cy="58.5" r="1.5" fill="#D8D8D8" mask="url(#prefix__b)"/>
        <circle cx="210.5" cy="77.5" r="1.5" fill="#D8D8D8" mask="url(#prefix__b)"/>
        <circle cx="210.5" cy="96.5" r="1.5" fill="#D8D8D8" mask="url(#prefix__b)"/>
        <circle cx="210.5" cy="115.5" r="1.5" fill="#D8D8D8" mask="url(#prefix__b)"/>
        <circle cx="210.5" cy="134.5" r="1.5" fill="#D8D8D8" mask="url(#prefix__b)"/>
        <circle cx="210.5" cy="153.5" r="1.5" fill="#D8D8D8" mask="url(#prefix__b)"/>
        <circle cx="210.5" cy="172.5" r="1.5" fill="#D8D8D8" mask="url(#prefix__b)"/>
        <circle cx="210.5" cy="191.5" r="1.5" fill="#D8D8D8" mask="url(#prefix__b)"/>
        <circle cx="210.5" cy="210.5" r="1.5" fill="#D8D8D8" mask="url(#prefix__b)"/>
        <circle cx="210.5" cy="229.5" r="1.5" fill="#D8D8D8" mask="url(#prefix__b)"/>
        <circle cx="210.5" cy="248.5" r="1.5" fill="#D8D8D8" mask="url(#prefix__b)"/>
        <circle cx="210.5" cy="267.5" r="1.5" fill="#D8D8D8" mask="url(#prefix__b)"/>
        <circle cx="229.5" cy="1.5" r="1.5" fill="#D8D8D8" mask="url(#prefix__b)"/>
        <circle cx="229.5" cy="20.5" r="1.5" fill="#D8D8D8" mask="url(#prefix__b)"/>
        <circle cx="229.5" cy="39.5" r="1.5" fill="#D8D8D8" mask="url(#prefix__b)"/>
        <circle cx="229.5" cy="58.5" r="1.5" fill="#D8D8D8" mask="url(#prefix__b)"/>
        <circle cx="229.5" cy="77.5" r="1.5" fill="#D8D8D8" mask="url(#prefix__b)"/>
        <circle cx="229.5" cy="96.5" r="1.5" fill="#D8D8D8" mask="url(#prefix__b)"/>
        <circle cx="229.5" cy="115.5" r="1.5" fill="#D8D8D8" mask="url(#prefix__b)"/>
        <circle cx="229.5" cy="134.5" r="1.5" fill="#D8D8D8" mask="url(#prefix__b)"/>
        <circle cx="229.5" cy="153.5" r="1.5" fill="#D8D8D8" mask="url(#prefix__b)"/>
        <circle cx="229.5" cy="172.5" r="1.5" fill="#D8D8D8" mask="url(#prefix__b)"/>
        <circle cx="229.5" cy="191.5" r="1.5" fill="#D8D8D8" mask="url(#prefix__b)"/>
        <circle cx="229.5" cy="210.5" r="1.5" fill="#D8D8D8" mask="url(#prefix__b)"/>
        <circle cx="229.5" cy="229.5" r="1.5" fill="#D8D8D8" mask="url(#prefix__b)"/>
        <circle cx="229.5" cy="248.5" r="1.5" fill="#D8D8D8" mask="url(#prefix__b)"/>
        <circle cx="229.5" cy="267.5" r="1.5" fill="#D8D8D8" mask="url(#prefix__b)"/>
        <circle cx="248.5" cy="1.5" r="1.5" fill="#D8D8D8" mask="url(#prefix__b)"/>
        <circle cx="248.5" cy="20.5" r="1.5" fill="#D8D8D8" mask="url(#prefix__b)"/>
        <circle cx="248.5" cy="39.5" r="1.5" fill="#D8D8D8" mask="url(#prefix__b)"/>
        <circle cx="248.5" cy="58.5" r="1.5" fill="#D8D8D8" mask="url(#prefix__b)"/>
        <circle cx="248.5" cy="77.5" r="1.5" fill="#D8D8D8" mask="url(#prefix__b)"/>
        <circle cx="248.5" cy="96.5" r="1.5" fill="#D8D8D8" mask="url(#prefix__b)"/>
        <circle cx="248.5" cy="115.5" r="1.5" fill="#D8D8D8" mask="url(#prefix__b)"/>
        <circle cx="248.5" cy="134.5" r="1.5" fill="#D8D8D8" mask="url(#prefix__b)"/>
        <circle cx="248.5" cy="153.5" r="1.5" fill="#D8D8D8" mask="url(#prefix__b)"/>
        <circle cx="248.5" cy="172.5" r="1.5" fill="#D8D8D8" mask="url(#prefix__b)"/>
        <circle cx="248.5" cy="191.5" r="1.5" fill="#D8D8D8" mask="url(#prefix__b)"/>
        <circle cx="248.5" cy="210.5" r="1.5" fill="#D8D8D8" mask="url(#prefix__b)"/>
        <circle cx="248.5" cy="229.5" r="1.5" fill="#D8D8D8" mask="url(#prefix__b)"/>
        <circle cx="248.5" cy="248.5" r="1.5" fill="#D8D8D8" mask="url(#prefix__b)"/>
        <circle cx="248.5" cy="267.5" r="1.5" fill="#D8D8D8" mask="url(#prefix__b)"/>
        <circle cx="267.5" cy="1.5" r="1.5" fill="#D8D8D8" mask="url(#prefix__b)"/>
        <circle cx="267.5" cy="20.5" r="1.5" fill="#D8D8D8" mask="url(#prefix__b)"/>
        <circle cx="267.5" cy="39.5" r="1.5" fill="#D8D8D8" mask="url(#prefix__b)"/>
        <circle cx="267.5" cy="58.5" r="1.5" fill="#D8D8D8" mask="url(#prefix__b)"/>
        <circle cx="267.5" cy="77.5" r="1.5" fill="#D8D8D8" mask="url(#prefix__b)"/>
        <circle cx="267.5" cy="96.5" r="1.5" fill="#D8D8D8" mask="url(#prefix__b)"/>
        <circle cx="267.5" cy="115.5" r="1.5" fill="#D8D8D8" mask="url(#prefix__b)"/>
        <circle cx="267.5" cy="134.5" r="1.5" fill="#D8D8D8" mask="url(#prefix__b)"/>
        <circle cx="267.5" cy="153.5" r="1.5" fill="#D8D8D8" mask="url(#prefix__b)"/>
        <circle cx="267.5" cy="172.5" r="1.5" fill="#D8D8D8" mask="url(#prefix__b)"/>
        <circle cx="267.5" cy="191.5" r="1.5" fill="#D8D8D8" mask="url(#prefix__b)"/>
        <circle cx="267.5" cy="210.5" r="1.5" fill="#D8D8D8" mask="url(#prefix__b)"/>
        <circle cx="267.5" cy="229.5" r="1.5" fill="#D8D8D8" mask="url(#prefix__b)"/>
        <circle cx="267.5" cy="248.5" r="1.5" fill="#D8D8D8" mask="url(#prefix__b)"/>
        <circle cx="267.5" cy="267.5" r="1.5" fill="#D8D8D8" mask="url(#prefix__b)"/>
        <circle cx="286.5" cy="1.5" r="1.5" fill="#D8D8D8" mask="url(#prefix__b)"/>
        <circle cx="286.5" cy="20.5" r="1.5" fill="#D8D8D8" mask="url(#prefix__b)"/>
        <circle cx="286.5" cy="39.5" r="1.5" fill="#D8D8D8" mask="url(#prefix__b)"/>
        <circle cx="286.5" cy="58.5" r="1.5" fill="#D8D8D8" mask="url(#prefix__b)"/>
        <circle cx="286.5" cy="77.5" r="1.5" fill="#D8D8D8" mask="url(#prefix__b)"/>
        <circle cx="286.5" cy="96.5" r="1.5" fill="#D8D8D8" mask="url(#prefix__b)"/>
        <circle cx="286.5" cy="115.5" r="1.5" fill="#D8D8D8" mask="url(#prefix__b)"/>
        <circle cx="286.5" cy="134.5" r="1.5" fill="#D8D8D8" mask="url(#prefix__b)"/>
        <circle cx="286.5" cy="153.5" r="1.5" fill="#D8D8D8" mask="url(#prefix__b)"/>
        <circle cx="286.5" cy="172.5" r="1.5" fill="#D8D8D8" mask="url(#prefix__b)"/>
        <circle cx="286.5" cy="191.5" r="1.5" fill="#D8D8D8" mask="url(#prefix__b)"/>
        <circle cx="286.5" cy="210.5" r="1.5" fill="#D8D8D8" mask="url(#prefix__b)"/>
        <circle cx="286.5" cy="229.5" r="1.5" fill="#D8D8D8" mask="url(#prefix__b)"/>
        <circle cx="286.5" cy="248.5" r="1.5" fill="#D8D8D8" mask="url(#prefix__b)"/>
        <circle cx="286.5" cy="267.5" r="1.5" fill="#D8D8D8" mask="url(#prefix__b)"/>
        <circle cx="305.5" cy="1.5" r="1.5" fill="#D8D8D8" mask="url(#prefix__b)"/>
        <circle cx="305.5" cy="20.5" r="1.5" fill="#D8D8D8" mask="url(#prefix__b)"/>
        <circle cx="305.5" cy="39.5" r="1.5" fill="#D8D8D8" mask="url(#prefix__b)"/>
        <circle cx="305.5" cy="58.5" r="1.5" fill="#D8D8D8" mask="url(#prefix__b)"/>
        <circle cx="305.5" cy="77.5" r="1.5" fill="#D8D8D8" mask="url(#prefix__b)"/>
        <circle cx="305.5" cy="96.5" r="1.5" fill="#D8D8D8" mask="url(#prefix__b)"/>
        <circle cx="305.5" cy="115.5" r="1.5" fill="#D8D8D8" mask="url(#prefix__b)"/>
        <circle cx="305.5" cy="134.5" r="1.5" fill="#D8D8D8" mask="url(#prefix__b)"/>
        <circle cx="305.5" cy="153.5" r="1.5" fill="#D8D8D8" mask="url(#prefix__b)"/>
        <circle cx="305.5" cy="172.5" r="1.5" fill="#D8D8D8" mask="url(#prefix__b)"/>
        <circle cx="305.5" cy="191.5" r="1.5" fill="#D8D8D8" mask="url(#prefix__b)"/>
        <circle cx="305.5" cy="210.5" r="1.5" fill="#D8D8D8" mask="url(#prefix__b)"/>
        <circle cx="305.5" cy="229.5" r="1.5" fill="#D8D8D8" mask="url(#prefix__b)"/>
        <circle cx="305.5" cy="248.5" r="1.5" fill="#D8D8D8" mask="url(#prefix__b)"/>
        <circle cx="305.5" cy="267.5" r="1.5" fill="#D8D8D8" mask="url(#prefix__b)"/>
        <circle cx="324.5" cy="1.5" r="1.5" fill="#D8D8D8" mask="url(#prefix__b)"/>
        <circle cx="324.5" cy="20.5" r="1.5" fill="#D8D8D8" mask="url(#prefix__b)"/>
        <circle cx="324.5" cy="39.5" r="1.5" fill="#D8D8D8" mask="url(#prefix__b)"/>
        <circle cx="324.5" cy="58.5" r="1.5" fill="#D8D8D8" mask="url(#prefix__b)"/>
        <circle cx="324.5" cy="77.5" r="1.5" fill="#D8D8D8" mask="url(#prefix__b)"/>
        <circle cx="324.5" cy="96.5" r="1.5" fill="#D8D8D8" mask="url(#prefix__b)"/>
        <circle cx="324.5" cy="115.5" r="1.5" fill="#D8D8D8" mask="url(#prefix__b)"/>
        <circle cx="324.5" cy="134.5" r="1.5" fill="#D8D8D8" mask="url(#prefix__b)"/>
        <circle cx="324.5" cy="153.5" r="1.5" fill="#D8D8D8" mask="url(#prefix__b)"/>
        <circle cx="324.5" cy="172.5" r="1.5" fill="#D8D8D8" mask="url(#prefix__b)"/>
        <circle cx="324.5" cy="191.5" r="1.5" fill="#D8D8D8" mask="url(#prefix__b)"/>
        <circle cx="324.5" cy="210.5" r="1.5" fill="#D8D8D8" mask="url(#prefix__b)"/>
        <circle cx="324.5" cy="229.5" r="1.5" fill="#D8D8D8" mask="url(#prefix__b)"/>
        <circle cx="324.5" cy="248.5" r="1.5" fill="#D8D8D8" mask="url(#prefix__b)"/>
        <circle cx="324.5" cy="267.5" r="1.5" fill="#D8D8D8" mask="url(#prefix__b)"/>
        <circle cx="343.5" cy="1.5" r="1.5" fill="#D8D8D8" mask="url(#prefix__b)"/>
        <circle cx="343.5" cy="20.5" r="1.5" fill="#D8D8D8" mask="url(#prefix__b)"/>
        <circle cx="343.5" cy="39.5" r="1.5" fill="#D8D8D8" mask="url(#prefix__b)"/>
        <circle cx="343.5" cy="58.5" r="1.5" fill="#D8D8D8" mask="url(#prefix__b)"/>
        <circle cx="343.5" cy="77.5" r="1.5" fill="#D8D8D8" mask="url(#prefix__b)"/>
        <circle cx="343.5" cy="96.5" r="1.5" fill="#D8D8D8" mask="url(#prefix__b)"/>
        <circle cx="343.5" cy="115.5" r="1.5" fill="#D8D8D8" mask="url(#prefix__b)"/>
        <circle cx="343.5" cy="134.5" r="1.5" fill="#D8D8D8" mask="url(#prefix__b)"/>
        <circle cx="343.5" cy="153.5" r="1.5" fill="#D8D8D8" mask="url(#prefix__b)"/>
        <circle cx="343.5" cy="172.5" r="1.5" fill="#D8D8D8" mask="url(#prefix__b)"/>
        <circle cx="343.5" cy="191.5" r="1.5" fill="#D8D8D8" mask="url(#prefix__b)"/>
        <circle cx="343.5" cy="210.5" r="1.5" fill="#D8D8D8" mask="url(#prefix__b)"/>
        <circle cx="343.5" cy="229.5" r="1.5" fill="#D8D8D8" mask="url(#prefix__b)"/>
        <circle cx="343.5" cy="248.5" r="1.5" fill="#D8D8D8" mask="url(#prefix__b)"/>
        <circle cx="343.5" cy="267.5" r="1.5" fill="#D8D8D8" mask="url(#prefix__b)"/>
        <circle cx="362.5" cy="1.5" r="1.5" fill="#D8D8D8" mask="url(#prefix__b)"/>
        <circle cx="362.5" cy="20.5" r="1.5" fill="#D8D8D8" mask="url(#prefix__b)"/>
        <circle cx="362.5" cy="39.5" r="1.5" fill="#D8D8D8" mask="url(#prefix__b)"/>
        <circle cx="362.5" cy="58.5" r="1.5" fill="#D8D8D8" mask="url(#prefix__b)"/>
        <circle cx="362.5" cy="77.5" r="1.5" fill="#D8D8D8" mask="url(#prefix__b)"/>
        <circle cx="362.5" cy="96.5" r="1.5" fill="#D8D8D8" mask="url(#prefix__b)"/>
        <circle cx="362.5" cy="115.5" r="1.5" fill="#D8D8D8" mask="url(#prefix__b)"/>
        <circle cx="362.5" cy="134.5" r="1.5" fill="#D8D8D8" mask="url(#prefix__b)"/>
        <circle cx="362.5" cy="153.5" r="1.5" fill="#D8D8D8" mask="url(#prefix__b)"/>
        <circle cx="362.5" cy="172.5" r="1.5" fill="#D8D8D8" mask="url(#prefix__b)"/>
        <circle cx="362.5" cy="191.5" r="1.5" fill="#D8D8D8" mask="url(#prefix__b)"/>
        <circle cx="362.5" cy="210.5" r="1.5" fill="#D8D8D8" mask="url(#prefix__b)"/>
        <circle cx="362.5" cy="229.5" r="1.5" fill="#D8D8D8" mask="url(#prefix__b)"/>
        <circle cx="362.5" cy="248.5" r="1.5" fill="#D8D8D8" mask="url(#prefix__b)"/>
        <circle cx="362.5" cy="267.5" r="1.5" fill="#D8D8D8" mask="url(#prefix__b)"/>
        <circle cx="381.5" cy="1.5" r="1.5" fill="#D8D8D8" mask="url(#prefix__b)"/>
        <circle cx="381.5" cy="20.5" r="1.5" fill="#D8D8D8" mask="url(#prefix__b)"/>
        <circle cx="381.5" cy="39.5" r="1.5" fill="#D8D8D8" mask="url(#prefix__b)"/>
        <circle cx="381.5" cy="58.5" r="1.5" fill="#D8D8D8" mask="url(#prefix__b)"/>
        <circle cx="381.5" cy="77.5" r="1.5" fill="#D8D8D8" mask="url(#prefix__b)"/>
        <circle cx="381.5" cy="96.5" r="1.5" fill="#D8D8D8" mask="url(#prefix__b)"/>
        <circle cx="381.5" cy="115.5" r="1.5" fill="#D8D8D8" mask="url(#prefix__b)"/>
        <circle cx="381.5" cy="134.5" r="1.5" fill="#D8D8D8" mask="url(#prefix__b)"/>
        <circle cx="381.5" cy="153.5" r="1.5" fill="#D8D8D8" mask="url(#prefix__b)"/>
        <circle cx="381.5" cy="172.5" r="1.5" fill="#D8D8D8" mask="url(#prefix__b)"/>
        <circle cx="381.5" cy="191.5" r="1.5" fill="#D8D8D8" mask="url(#prefix__b)"/>
        <circle cx="381.5" cy="210.5" r="1.5" fill="#D8D8D8" mask="url(#prefix__b)"/>
        <circle cx="381.5" cy="229.5" r="1.5" fill="#D8D8D8" mask="url(#prefix__b)"/>
        <circle cx="381.5" cy="248.5" r="1.5" fill="#D8D8D8" mask="url(#prefix__b)"/>
        <circle cx="381.5" cy="267.5" r="1.5" fill="#D8D8D8" mask="url(#prefix__b)"/>
        <circle cx="400.5" cy="1.5" r="1.5" fill="#D8D8D8" mask="url(#prefix__b)"/>
        <circle cx="400.5" cy="20.5" r="1.5" fill="#D8D8D8" mask="url(#prefix__b)"/>
        <circle cx="400.5" cy="39.5" r="1.5" fill="#D8D8D8" mask="url(#prefix__b)"/>
        <circle cx="400.5" cy="58.5" r="1.5" fill="#D8D8D8" mask="url(#prefix__b)"/>
        <circle cx="400.5" cy="77.5" r="1.5" fill="#D8D8D8" mask="url(#prefix__b)"/>
        <circle cx="400.5" cy="96.5" r="1.5" fill="#D8D8D8" mask="url(#prefix__b)"/>
        <circle cx="400.5" cy="115.5" r="1.5" fill="#D8D8D8" mask="url(#prefix__b)"/>
        <circle cx="400.5" cy="134.5" r="1.5" fill="#D8D8D8" mask="url(#prefix__b)"/>
        <circle cx="400.5" cy="153.5" r="1.5" fill="#D8D8D8" mask="url(#prefix__b)"/>
        <circle cx="400.5" cy="172.5" r="1.5" fill="#D8D8D8" mask="url(#prefix__b)"/>
        <circle cx="400.5" cy="191.5" r="1.5" fill="#D8D8D8" mask="url(#prefix__b)"/>
        <circle cx="400.5" cy="210.5" r="1.5" fill="#D8D8D8" mask="url(#prefix__b)"/>
        <circle cx="400.5" cy="229.5" r="1.5" fill="#D8D8D8" mask="url(#prefix__b)"/>
        <circle cx="400.5" cy="248.5" r="1.5" fill="#D8D8D8" mask="url(#prefix__b)"/>
        <circle cx="400.5" cy="267.5" r="1.5" fill="#D8D8D8" mask="url(#prefix__b)"/>
        <circle cx="419.5" cy="1.5" r="1.5" fill="#D8D8D8" mask="url(#prefix__b)"/>
        <circle cx="419.5" cy="20.5" r="1.5" fill="#D8D8D8" mask="url(#prefix__b)"/>
        <circle cx="419.5" cy="39.5" r="1.5" fill="#D8D8D8" mask="url(#prefix__b)"/>
        <circle cx="419.5" cy="58.5" r="1.5" fill="#D8D8D8" mask="url(#prefix__b)"/>
        <circle cx="419.5" cy="77.5" r="1.5" fill="#D8D8D8" mask="url(#prefix__b)"/>
        <circle cx="419.5" cy="96.5" r="1.5" fill="#D8D8D8" mask="url(#prefix__b)"/>
        <circle cx="419.5" cy="115.5" r="1.5" fill="#D8D8D8" mask="url(#prefix__b)"/>
        <circle cx="419.5" cy="134.5" r="1.5" fill="#D8D8D8" mask="url(#prefix__b)"/>
        <circle cx="419.5" cy="153.5" r="1.5" fill="#D8D8D8" mask="url(#prefix__b)"/>
        <circle cx="419.5" cy="172.5" r="1.5" fill="#D8D8D8" mask="url(#prefix__b)"/>
        <circle cx="419.5" cy="191.5" r="1.5" fill="#D8D8D8" mask="url(#prefix__b)"/>
        <circle cx="419.5" cy="210.5" r="1.5" fill="#D8D8D8" mask="url(#prefix__b)"/>
        <circle cx="419.5" cy="229.5" r="1.5" fill="#D8D8D8" mask="url(#prefix__b)"/>
        <circle cx="419.5" cy="248.5" r="1.5" fill="#D8D8D8" mask="url(#prefix__b)"/>
        <circle cx="419.5" cy="267.5" r="1.5" fill="#D8D8D8" mask="url(#prefix__b)"/>
        <circle cx="438.5" cy="1.5" r="1.5" fill="#D8D8D8" mask="url(#prefix__b)"/>
        <circle cx="438.5" cy="20.5" r="1.5" fill="#D8D8D8" mask="url(#prefix__b)"/>
        <circle cx="438.5" cy="39.5" r="1.5" fill="#D8D8D8" mask="url(#prefix__b)"/>
        <circle cx="438.5" cy="58.5" r="1.5" fill="#D8D8D8" mask="url(#prefix__b)"/>
        <circle cx="438.5" cy="77.5" r="1.5" fill="#D8D8D8" mask="url(#prefix__b)"/>
        <circle cx="438.5" cy="96.5" r="1.5" fill="#D8D8D8" mask="url(#prefix__b)"/>
        <circle cx="438.5" cy="115.5" r="1.5" fill="#D8D8D8" mask="url(#prefix__b)"/>
        <circle cx="438.5" cy="134.5" r="1.5" fill="#D8D8D8" mask="url(#prefix__b)"/>
        <circle cx="438.5" cy="153.5" r="1.5" fill="#D8D8D8" mask="url(#prefix__b)"/>
        <circle cx="438.5" cy="172.5" r="1.5" fill="#D8D8D8" mask="url(#prefix__b)"/>
        <circle cx="438.5" cy="191.5" r="1.5" fill="#D8D8D8" mask="url(#prefix__b)"/>
        <circle cx="438.5" cy="210.5" r="1.5" fill="#D8D8D8" mask="url(#prefix__b)"/>
        <circle cx="438.5" cy="229.5" r="1.5" fill="#D8D8D8" mask="url(#prefix__b)"/>
        <circle cx="438.5" cy="248.5" r="1.5" fill="#D8D8D8" mask="url(#prefix__b)"/>
        <circle cx="438.5" cy="267.5" r="1.5" fill="#D8D8D8" mask="url(#prefix__b)"/>
        <circle cx="457.5" cy="1.5" r="1.5" fill="#D8D8D8" mask="url(#prefix__b)"/>
        <circle cx="457.5" cy="20.5" r="1.5" fill="#D8D8D8" mask="url(#prefix__b)"/>
        <circle cx="457.5" cy="39.5" r="1.5" fill="#D8D8D8" mask="url(#prefix__b)"/>
        <circle cx="457.5" cy="58.5" r="1.5" fill="#D8D8D8" mask="url(#prefix__b)"/>
        <circle cx="457.5" cy="77.5" r="1.5" fill="#D8D8D8" mask="url(#prefix__b)"/>
        <circle cx="457.5" cy="96.5" r="1.5" fill="#D8D8D8" mask="url(#prefix__b)"/>
        <circle cx="457.5" cy="115.5" r="1.5" fill="#D8D8D8" mask="url(#prefix__b)"/>
        <circle cx="457.5" cy="134.5" r="1.5" fill="#D8D8D8" mask="url(#prefix__b)"/>
        <circle cx="457.5" cy="153.5" r="1.5" fill="#D8D8D8" mask="url(#prefix__b)"/>
        <circle cx="457.5" cy="172.5" r="1.5" fill="#D8D8D8" mask="url(#prefix__b)"/>
        <circle cx="457.5" cy="191.5" r="1.5" fill="#D8D8D8" mask="url(#prefix__b)"/>
        <circle cx="457.5" cy="210.5" r="1.5" fill="#D8D8D8" mask="url(#prefix__b)"/>
        <circle cx="457.5" cy="229.5" r="1.5" fill="#D8D8D8" mask="url(#prefix__b)"/>
        <circle cx="457.5" cy="248.5" r="1.5" fill="#D8D8D8" mask="url(#prefix__b)"/>
        <circle cx="457.5" cy="267.5" r="1.5" fill="#D8D8D8" mask="url(#prefix__b)"/>
        <circle cx="476.5" cy="1.5" r="1.5" fill="#D8D8D8" mask="url(#prefix__b)"/>
        <circle cx="476.5" cy="20.5" r="1.5" fill="#D8D8D8" mask="url(#prefix__b)"/>
        <circle cx="476.5" cy="39.5" r="1.5" fill="#D8D8D8" mask="url(#prefix__b)"/>
        <circle cx="476.5" cy="58.5" r="1.5" fill="#D8D8D8" mask="url(#prefix__b)"/>
        <circle cx="476.5" cy="77.5" r="1.5" fill="#D8D8D8" mask="url(#prefix__b)"/>
        <circle cx="476.5" cy="96.5" r="1.5" fill="#D8D8D8" mask="url(#prefix__b)"/>
        <circle cx="476.5" cy="115.5" r="1.5" fill="#D8D8D8" mask="url(#prefix__b)"/>
        <circle cx="476.5" cy="134.5" r="1.5" fill="#D8D8D8" mask="url(#prefix__b)"/>
        <circle cx="476.5" cy="153.5" r="1.5" fill="#D8D8D8" mask="url(#prefix__b)"/>
        <circle cx="476.5" cy="172.5" r="1.5" fill="#D8D8D8" mask="url(#prefix__b)"/>
        <circle cx="476.5" cy="191.5" r="1.5" fill="#D8D8D8" mask="url(#prefix__b)"/>
        <circle cx="476.5" cy="210.5" r="1.5" fill="#D8D8D8" mask="url(#prefix__b)"/>
        <circle cx="476.5" cy="229.5" r="1.5" fill="#D8D8D8" mask="url(#prefix__b)"/>
        <circle cx="476.5" cy="248.5" r="1.5" fill="#D8D8D8" mask="url(#prefix__b)"/>
        <circle cx="476.5" cy="267.5" r="1.5" fill="#D8D8D8" mask="url(#prefix__b)"/>
        <circle cx="495.5" cy="1.5" r="1.5" fill="#D8D8D8" mask="url(#prefix__b)"/>
        <circle cx="495.5" cy="20.5" r="1.5" fill="#D8D8D8" mask="url(#prefix__b)"/>
        <circle cx="495.5" cy="39.5" r="1.5" fill="#D8D8D8" mask="url(#prefix__b)"/>
        <circle cx="495.5" cy="58.5" r="1.5" fill="#D8D8D8" mask="url(#prefix__b)"/>
        <circle cx="495.5" cy="77.5" r="1.5" fill="#D8D8D8" mask="url(#prefix__b)"/>
        <circle cx="495.5" cy="96.5" r="1.5" fill="#D8D8D8" mask="url(#prefix__b)"/>
        <circle cx="495.5" cy="115.5" r="1.5" fill="#D8D8D8" mask="url(#prefix__b)"/>
        <circle cx="495.5" cy="134.5" r="1.5" fill="#D8D8D8" mask="url(#prefix__b)"/>
        <circle cx="495.5" cy="153.5" r="1.5" fill="#D8D8D8" mask="url(#prefix__b)"/>
        <circle cx="495.5" cy="172.5" r="1.5" fill="#D8D8D8" mask="url(#prefix__b)"/>
        <circle cx="495.5" cy="191.5" r="1.5" fill="#D8D8D8" mask="url(#prefix__b)"/>
        <circle cx="495.5" cy="210.5" r="1.5" fill="#D8D8D8" mask="url(#prefix__b)"/>
        <circle cx="495.5" cy="229.5" r="1.5" fill="#D8D8D8" mask="url(#prefix__b)"/>
        <circle cx="495.5" cy="248.5" r="1.5" fill="#D8D8D8" mask="url(#prefix__b)"/>
        <circle cx="495.5" cy="267.5" r="1.5" fill="#D8D8D8" mask="url(#prefix__b)"/>
        <circle cx="514.5" cy="1.5" r="1.5" fill="#D8D8D8" mask="url(#prefix__b)"/>
        <circle cx="514.5" cy="20.5" r="1.5" fill="#D8D8D8" mask="url(#prefix__b)"/>
        <circle cx="514.5" cy="39.5" r="1.5" fill="#D8D8D8" mask="url(#prefix__b)"/>
        <circle cx="514.5" cy="58.5" r="1.5" fill="#D8D8D8" mask="url(#prefix__b)"/>
        <circle cx="514.5" cy="77.5" r="1.5" fill="#D8D8D8" mask="url(#prefix__b)"/>
        <circle cx="514.5" cy="96.5" r="1.5" fill="#D8D8D8" mask="url(#prefix__b)"/>
        <circle cx="514.5" cy="115.5" r="1.5" fill="#D8D8D8" mask="url(#prefix__b)"/>
        <circle cx="514.5" cy="134.5" r="1.5" fill="#D8D8D8" mask="url(#prefix__b)"/>
        <circle cx="514.5" cy="153.5" r="1.5" fill="#D8D8D8" mask="url(#prefix__b)"/>
        <circle cx="514.5" cy="172.5" r="1.5" fill="#D8D8D8" mask="url(#prefix__b)"/>
        <circle cx="514.5" cy="191.5" r="1.5" fill="#D8D8D8" mask="url(#prefix__b)"/>
        <circle cx="514.5" cy="210.5" r="1.5" fill="#D8D8D8" mask="url(#prefix__b)"/>
        <circle cx="514.5" cy="229.5" r="1.5" fill="#D8D8D8" mask="url(#prefix__b)"/>
        <circle cx="514.5" cy="248.5" r="1.5" fill="#D8D8D8" mask="url(#prefix__b)"/>
        <circle cx="514.5" cy="267.5" r="1.5" fill="#D8D8D8" mask="url(#prefix__b)"/>
        <circle cx="533.5" cy="1.5" r="1.5" fill="#D8D8D8" mask="url(#prefix__b)"/>
        <circle cx="533.5" cy="20.5" r="1.5" fill="#D8D8D8" mask="url(#prefix__b)"/>
        <circle cx="533.5" cy="39.5" r="1.5" fill="#D8D8D8" mask="url(#prefix__b)"/>
        <circle cx="533.5" cy="58.5" r="1.5" fill="#D8D8D8" mask="url(#prefix__b)"/>
        <circle cx="533.5" cy="77.5" r="1.5" fill="#D8D8D8" mask="url(#prefix__b)"/>
        <circle cx="533.5" cy="96.5" r="1.5" fill="#D8D8D8" mask="url(#prefix__b)"/>
        <circle cx="533.5" cy="115.5" r="1.5" fill="#D8D8D8" mask="url(#prefix__b)"/>
        <circle cx="533.5" cy="134.5" r="1.5" fill="#D8D8D8" mask="url(#prefix__b)"/>
        <circle cx="533.5" cy="153.5" r="1.5" fill="#D8D8D8" mask="url(#prefix__b)"/>
        <circle cx="533.5" cy="172.5" r="1.5" fill="#D8D8D8" mask="url(#prefix__b)"/>
        <circle cx="533.5" cy="191.5" r="1.5" fill="#D8D8D8" mask="url(#prefix__b)"/>
        <circle cx="533.5" cy="210.5" r="1.5" fill="#D8D8D8" mask="url(#prefix__b)"/>
        <circle cx="533.5" cy="229.5" r="1.5" fill="#D8D8D8" mask="url(#prefix__b)"/>
        <circle cx="533.5" cy="248.5" r="1.5" fill="#D8D8D8" mask="url(#prefix__b)"/>
        <circle cx="533.5" cy="267.5" r="1.5" fill="#D8D8D8" mask="url(#prefix__b)"/>
        <circle cx="552.5" cy="1.5" r="1.5" fill="#D8D8D8" mask="url(#prefix__b)"/>
        <circle cx="552.5" cy="20.5" r="1.5" fill="#D8D8D8" mask="url(#prefix__b)"/>
        <circle cx="552.5" cy="39.5" r="1.5" fill="#D8D8D8" mask="url(#prefix__b)"/>
        <circle cx="552.5" cy="58.5" r="1.5" fill="#D8D8D8" mask="url(#prefix__b)"/>
        <circle cx="552.5" cy="77.5" r="1.5" fill="#D8D8D8" mask="url(#prefix__b)"/>
        <circle cx="552.5" cy="96.5" r="1.5" fill="#D8D8D8" mask="url(#prefix__b)"/>
        <circle cx="552.5" cy="115.5" r="1.5" fill="#D8D8D8" mask="url(#prefix__b)"/>
        <circle cx="552.5" cy="134.5" r="1.5" fill="#D8D8D8" mask="url(#prefix__b)"/>
        <circle cx="552.5" cy="153.5" r="1.5" fill="#D8D8D8" mask="url(#prefix__b)"/>
        <circle cx="552.5" cy="172.5" r="1.5" fill="#D8D8D8" mask="url(#prefix__b)"/>
        <circle cx="552.5" cy="191.5" r="1.5" fill="#D8D8D8" mask="url(#prefix__b)"/>
        <circle cx="552.5" cy="210.5" r="1.5" fill="#D8D8D8" mask="url(#prefix__b)"/>
        <circle cx="552.5" cy="229.5" r="1.5" fill="#D8D8D8" mask="url(#prefix__b)"/>
        <circle cx="552.5" cy="248.5" r="1.5" fill="#D8D8D8" mask="url(#prefix__b)"/>
        <circle cx="552.5" cy="267.5" r="1.5" fill="#D8D8D8" mask="url(#prefix__b)"/>
    </g>
</svg>
