<svg xmlns="http://www.w3.org/2000/svg" xmlns:xlink="http://www.w3.org/1999/xlink" width="102" height="37" viewBox="0 0 102 37">
    <defs>
        <path id="prefix__a" d="M0 0L36.653 0 36.653 36.653 0 36.653z"/>
        <path id="prefix__c" d="M0 36.659L101.962 36.659 101.962 0.007 0 0.007z"/>
    </defs>
    <g fill="none" fill-rule="evenodd" transform="translate(0 .217)">
        <g transform="translate(0 .007)">
            <mask id="prefix__b" fill="#fff">
                <use xlink:href="#prefix__a"/>
            </mask>
            <path fill="#84BD00" d="M23.116 28.008s-.545.088-1.349.088c-2.351 0-6.84-.641-6.84-5.677v-5.821h-2.08v-3.64h2.223v-2.302l4.633-3.3v5.603h3.212v3.639h-3.212v5.297c0 1.805 1.693 2.067 2.639 2.067.402 0 .774-.029.774-.029v4.075zM18.326 0C8.206 0 0 8.205 0 18.326s8.205 18.327 18.326 18.327c10.122 0 18.327-8.206 18.327-18.327C36.653 8.205 28.448 0 18.326 0z" mask="url(#prefix__b)"/>
        </g>
        <path fill="#2E3C54" d="M57.458 22.77h-.122l-2.143-8.324h-3.879l4.136 12.091-.151.387c-.203.416-.493.65-.871.703-.379.053-.839-.012-1.379-.194l-.818 2.826c.217.086.504.174.86.265.355.091.786.138 1.292.138 1.302 0 2.34-.33 3.112-.988.773-.658 1.32-1.461 1.644-2.408l4.393-12.82H59.63l-2.173 8.324z"/>
        <mask id="prefix__d" fill="#fff">
            <use xlink:href="#prefix__c"/>
        </mask>
        <path fill="#231F20" d="M57.534 9.67L60.866 9.67 60.866 9.669 57.534 9.669z" mask="url(#prefix__d)"/>
        <path fill="#2E3C54" d="M76.434 14.848c-.635.416-1.061.97-1.28 1.66h-.12c-.159-.696-.526-1.25-1.105-1.664-.58-.414-1.276-.62-2.087-.62-.798 0-1.487.204-2.068.612-.582.409-.995.967-1.238 1.673h-.13v-2.134h-3.542v11.622h3.725v-6.878c0-.575.154-1.032.46-1.373.308-.34.706-.51 1.193-.51.482 0 .871.155 1.165.469.295.312.442.738.442 1.278v7.014h3.58v-6.938c0-.555.146-.997.438-1.328.292-.33.694-.496 1.207-.496.473 0 .86.153 1.162.458.302.305.453.747.453 1.328v6.976h3.724v-7.824c0-1.23-.345-2.196-1.035-2.897-.691-.701-1.59-1.053-2.697-1.053-.863 0-1.612.209-2.247.625zM92.077 21.051c0 .676-.187 1.197-.563 1.563-.375.366-.837.549-1.382.549-.56 0-1.004-.182-1.33-.546-.325-.363-.49-.86-.495-1.49v-6.681h-3.672v7.407c.005.873.173 1.637.503 2.293.33.656.793 1.165 1.386 1.528.593.364 1.285.545 2.076.545.866 0 1.606-.208 2.22-.624.613-.416 1.046-.98 1.302-1.691h.12v2.164h3.5V14.446h-3.665v6.605z" mask="url(#prefix__d)"/>
        <path fill="#231F20" d="M100.073 9.67h-.005.01-.005" mask="url(#prefix__d)"/>
        <path fill="#2E3C54" d="M98.232 26.472c0 .385-.1.671-.298.862-.198.19-.555.284-1.068.284-.122 0-.275-.007-.458-.023v2.81c.147.015.274.022.381.022.108 0 .21.003.305.008 1.496.045 2.681-.231 3.556-.828.874-.597 1.312-1.617 1.312-3.06V14.447h-3.73v12.026zM47.397 17.154h2.432v-2.728h-2.432v-4.201L43.89 12.7v1.726h-1.683v2.728h1.574v4.365c0 3.775 3.4 4.256 5.18 4.256.608 0 1.021-.066 1.021-.066v-3.056s-.281.023-.585.023c-.717 0-1.999-.197-1.999-1.55v-3.972zM101.962 9.558L100.078 9.558 100.069 9.558 98.185 9.558 98.185 13.113 101.962 13.113zM61.088 9.558L57.361 9.558 55.535 13.113 59.22 13.113z" mask="url(#prefix__d)"/>
    </g>
</svg>
