<svg xmlns="http://www.w3.org/2000/svg" xmlns:xlink="http://www.w3.org/1999/xlink" width="16" height="16" viewBox="0 0 16 16">
    <defs>
        <path id="prefix__a" d="M0.183 0L16.183 0 16.183 16 0.183 16z"/>
    </defs>
    <g fill="none" fill-rule="evenodd">
        <mask id="prefix__b" fill="#fff">
            <use xlink:href="#prefix__a"/>
        </mask>
        <path fill="#2F3C54" d="M6.486 11.241c-.028.216.048.275.16.124 1.215-1.079 2.428-2.161 3.644-3.238.112-.1.12-.145.001-.25C9.075 6.8 7.862 5.717 6.647 4.639c-.118-.157-.191-.09-.161.142L6.485 8v3.241zm-4.329 4.408C.987 15.442.191 13.991.17 12.318-.07 9.206-.065 6.05.244 2.948.589.218 2.584.202 4.077.118 4.887.06 5.697.051 6.508.018c2.497-.032 5.01-.081 7.492.379 1.798.364 1.862 3.32 1.939 5.398.036.94.079 1.881.054 2.824-.108 2.523.142 6.602-2.14 7.028-1.809.352-3.941.313-5.713.352-2.212-.013-3.903.053-5.983-.351z" mask="url(#prefix__b)"/>
    </g>
</svg>
