<svg xmlns="http://www.w3.org/2000/svg" width="40" height="40" viewBox="0 0 40 40">
    <path fill="#84BD01" d="M19.88 0c10.98 0 19.88 8.9 19.88 19.88 0 10.98-8.9 19.88-19.88 19.88C8.9 39.76 0 30.86 0 19.88 0 8.9 8.9 0 19.88 0zm7.683 11.626c-.434-.254-.88-.327-1.346-.215-.466.111-.832.373-1.098.784l-7.526 11.548-3.041-3.802c-.298-.38-.69-.602-1.17-.665-.483-.063-.915.046-1.297.332-.381.286-.615.657-.698 1.118-.083.458.025.877.323 1.259l4.588 5.75c.365.444.829.665 1.395.665h.1c.631-.032 1.112-.3 1.446-.807l8.87-13.64c.266-.379.35-.8.251-1.259-.1-.46-.365-.815-.797-1.068z"/>
</svg>
