<svg xmlns="http://www.w3.org/2000/svg" width="40" height="40" viewBox="0 0 40 40">
    <path fill="#84BD01" fill-rule="evenodd" d="M33.2 0C36.956 0 40 3.044 40 6.8v11.4c0 3.756-3.044 6.8-6.8 6.8H6.8C3.044 25 0 21.956 0 18.2V6.8C0 3.044 3.044 0 6.8 0h26.4zM6.669 6.818h-1.65V17h1.844v-6.935h.084L11.745 17h1.64V6.818h-1.834v6.94h-.09L6.67 6.819zm15.342 0H15.39V17h6.662v-1.546h-4.817v-2.78h4.434V11.13h-4.434V8.364h4.777V6.818zm3.137 0h-1.983L26.038 17h1.82l2.043-7.144h.08L32.019 17h1.82l2.873-10.182H34.73l-1.835 7.487h-.09l-1.963-7.487h-1.805L27.077 14.3h-.094l-1.835-7.482z"/>
</svg>
