<svg xmlns="http://www.w3.org/2000/svg" width="109" height="29" viewBox="0 0 109 29">
    <g fill="none" fill-rule="evenodd">
        <path fill="#2F3C54" d="M119 38H4c-2.27 0-4-1.71-4-4V4c0-2.29 1.73-4 4-4h115c2.27 0 4 1.71 4 4v30c0 2.29-1.73 4-4 4z" transform="translate(-7 .5)"/>
        <path fill="#FFF" d="M9.82 19.12V9.132c0-.571.478-1.047.954-1.047.477 0 .668.095.954.286L30.13 18.454c.382.19.572.475.572.76 0 .286-.19.571-.572.762L11.728 30.059c-.19.095-.477.285-.954.285-.476 0-.953-.476-.953-1.046V19.12zM68.27 32.722c-.477-.38-.858-1.046-1.05-1.427l1.527-.666c.095.19.286.476.476.761.382.38.954.761 1.526.761.572 0 1.24-.285 1.62-.76.287-.476.478-.952.478-1.618v-.57c-1.145 1.426-3.528 1.236-4.863-.286-1.43-1.522-1.43-4.09 0-5.612 1.43-1.427 3.528-1.617 4.767-.285v-.666h1.621v7.134c0 1.807-.667 2.853-1.525 3.52-.573.475-1.43.665-2.194.665-.858-.095-1.716-.38-2.383-.951zm39.95.38l1.622-3.804-2.86-6.564h1.62l2.003 4.661 2.002-4.66h1.62l-4.385 10.367h-1.621zm-7.722-3.614c-.477-.476-.668-1.142-.668-1.808 0-.57.19-1.141.572-1.521.668-.666 1.621-.952 2.67-.952.668 0 1.24.095 1.716.38 0-1.14-.953-1.616-1.716-1.616-.667 0-1.335.38-1.62 1.046l-1.431-.57c.286-.667 1.049-1.903 2.956-1.903.953 0 1.907.285 2.479.951.572.666.763 1.427.763 2.473v3.995h-1.621v-.665c-.191.285-.572.475-.858.665-.382.19-.859.286-1.335.286-.572-.095-1.43-.286-1.907-.761zm-50.821-3.425c0-1.902 1.43-3.995 4.004-3.995 2.48 0 4.005 2.093 4.005 3.995 0 1.903-1.43 3.996-4.005 3.996-2.574 0-4.004-2.093-4.004-3.996zm8.581 0c0-1.902 1.43-3.995 4.005-3.995 2.479 0 4.004 2.093 4.004 3.995 0 1.903-1.43 3.996-4.004 3.996-2.48 0-4.005-2.093-4.005-3.996zm-19.356 2.093c-2.383-2.378-2.288-6.278.096-8.751 1.24-1.237 2.765-1.807 4.386-1.807 1.525 0 3.05.57 4.195 1.712l-1.144 1.236c-1.716-1.712-4.482-1.617-6.102.095-1.717 1.808-1.717 4.566 0 6.374 1.716 1.807 4.576 1.902 6.293.095.572-.571.762-1.332.858-2.093h-4.005v-1.712h5.626c.095.38.095.856.095 1.332 0 1.426-.572 2.853-1.526 3.804-1.048 1.047-2.574 1.618-4.1 1.618-1.716-.096-3.432-.666-4.672-1.903zm40.333.666c-1.43-1.522-1.43-4.09 0-5.707 1.43-1.522 3.814-1.522 5.149 0 .476.475.763 1.141 1.049 1.807l-5.245 2.188c.286.666.954 1.236 1.907 1.236.858 0 1.43-.285 2.003-1.141l1.43.951c-.19.19-.381.38-.477.57-1.62 1.618-4.386 1.618-5.816.096zm9.916 1.141V19.405h3.433c2.002 0 3.623 1.427 3.623 3.139 0 1.712-1.43 3.139-3.242 3.139h-2.098v4.185h-1.716v.095zm8.01 0V19.405h1.62v10.558h-1.62zm-21.55-.19V17.978h1.717v11.795h-1.716zm29.082-2.949c-.381-.285-.953-.38-1.526-.38-1.144 0-1.811.57-1.811 1.236s.667 1.047 1.335 1.047c.953 0 2.002-.761 2.002-1.903zm-48.819-.76c0-1.142-.762-2.379-2.193-2.379-1.43 0-2.193 1.237-2.193 2.378 0 1.142.763 2.378 2.193 2.378 1.335 0 2.193-1.236 2.193-2.378zm8.582 0c0-1.142-.763-2.379-2.193-2.379-1.43 0-2.193 1.237-2.193 2.378 0 1.142.763 2.378 2.193 2.378 1.43 0 2.193-1.236 2.193-2.378zm8.486.665c0-.095 0-.19.095-.285v-.38-.381-.095c0-.095-.095-.286-.095-.38-.286-.952-1.144-1.618-2.002-1.618-1.145 0-2.098 1.142-2.098 2.378 0 1.332.953 2.378 2.193 2.378.763.095 1.525-.57 1.907-1.617zm6.96-.856l3.528-1.522c-.381-.666-.953-.856-1.43-.856-1.43.095-2.288 1.617-2.098 2.378zm14.589-3.234c0-.951-.763-1.617-1.812-1.617h-1.907v3.33h2.002c.954 0 1.717-.762 1.717-1.713z" transform="translate(-7 .5)"/>
        <path fill="#FFF" fill-rule="nonzero" d="M37.567 10.083c0-1.712 1.24-2.759 2.766-2.759 1.048 0 1.716.476 2.193 1.142l-.763.475c-.286-.38-.763-.665-1.43-.665-1.05 0-1.812.76-1.812 1.902s.763 1.902 1.812 1.902c.572 0 1.048-.285 1.24-.475v-.856h-1.526v-.856h2.574v1.997c-.477.571-1.24.951-2.193.951-1.621 0-2.86-1.141-2.86-2.758zM43.765 12.746L43.765 7.42 47.388 7.42 47.388 8.276 44.623 8.276 44.623 9.607 47.293 9.607 47.293 10.463 44.623 10.463 44.623 11.985 47.388 11.985 47.388 12.841zM50.058 12.746L50.058 8.276 48.437 8.276 48.437 7.42 52.633 7.42 52.633 8.276 51.012 8.276 51.012 12.746zM55.874 12.746V7.42h.954v5.326h-.954zM59.402 12.746L59.402 8.276 57.781 8.276 57.781 7.42 61.977 7.42 61.977 8.276 60.356 8.276 60.356 12.746zM65.028 10.083c0-1.617 1.144-2.759 2.765-2.759 1.621 0 2.765 1.142 2.765 2.759s-1.144 2.758-2.765 2.758c-1.62 0-2.765-1.236-2.765-2.758zm4.481 0c0-1.142-.667-1.903-1.811-1.903-1.05 0-1.812.857-1.812 1.903 0 1.141.667 1.902 1.812 1.902 1.144 0 1.811-.856 1.811-1.902zM75.326 12.746L72.56 8.941 72.56 12.746 71.607 12.746 71.607 7.42 72.56 7.42 75.326 11.129 75.326 7.42 76.279 7.42 76.279 12.746z" transform="translate(-7 .5)"/>
    </g>
</svg>
